<svg xmlns="http://www.w3.org/2000/svg" width="920" height="360" viewBox="0 0 920 360">
<style>text{font-family:Arial,sans-serif;fill:#111827;}.axis{stroke:#9ca3af;stroke-width:1;}.grid{stroke:#e5e7eb;stroke-width:1;}.legend{font-size:12px;}.tick{font-size:11px;fill:#4b5563;}.title{font-size:18px;font-weight:700;}</style>
<text class="title" x="72" y="28">Proxy fluorescence calibration</text>
<text class="tick" x="72" y="344">Time step</text>
<text class="tick" transform="translate(20 166.0) rotate(-90)">Proxy SIF (a.u.)</text>
<line class="grid" x1="72" y1="290.00" x2="892" y2="290.00" />
<text class="tick" x="62" y="294.00" text-anchor="end">-0.00</text>
<line class="grid" x1="72" y1="228.00" x2="892" y2="228.00" />
<text class="tick" x="62" y="232.00" text-anchor="end">0.07</text>
<line class="grid" x1="72" y1="166.00" x2="892" y2="166.00" />
<text class="tick" x="62" y="170.00" text-anchor="end">0.15</text>
<line class="grid" x1="72" y1="104.00" x2="892" y2="104.00" />
<text class="tick" x="62" y="108.00" text-anchor="end">0.23</text>
<line class="grid" x1="72" y1="42.00" x2="892" y2="42.00" />
<text class="tick" x="62" y="46.00" text-anchor="end">0.31</text>
<line class="axis" x1="72" y1="42" x2="72" y2="290" />
<line class="axis" x1="72" y1="290" x2="892" y2="290" />
<line class="grid" x1="72.00" y1="42" x2="72.00" y2="290" />
<text class="tick" x="72.00" y="318" text-anchor="middle">2021-05-25</text>
<line class="grid" x1="163.11" y1="42" x2="163.11" y2="290" />
<text class="tick" x="163.11" y="318" text-anchor="middle">2021-06-02</text>
<line class="grid" x1="254.22" y1="42" x2="254.22" y2="290" />
<text class="tick" x="254.22" y="318" text-anchor="middle">2021-06-10</text>
<line class="grid" x1="345.33" y1="42" x2="345.33" y2="290" />
<text class="tick" x="345.33" y="318" text-anchor="middle">2021-06-18</text>
<line class="grid" x1="436.44" y1="42" x2="436.44" y2="290" />
<text class="tick" x="436.44" y="318" text-anchor="middle">2021-06-26</text>
<line class="grid" x1="527.56" y1="42" x2="527.56" y2="290" />
<text class="tick" x="527.56" y="318" text-anchor="middle">2021-07-04</text>
<line class="grid" x1="618.67" y1="42" x2="618.67" y2="290" />
<text class="tick" x="618.67" y="318" text-anchor="middle">2021-07-12</text>
<line class="grid" x1="709.78" y1="42" x2="709.78" y2="290" />
<text class="tick" x="709.78" y="318" text-anchor="middle">2021-07-20</text>
<line class="grid" x1="800.89" y1="42" x2="800.89" y2="290" />
<text class="tick" x="800.89" y="318" text-anchor="middle">2021-07-28</text>
<line class="grid" x1="892.00" y1="42" x2="892.00" y2="290" />
<text class="tick" x="892.00" y="318" text-anchor="middle">2021-08-05</text>
<polyline fill="none" stroke="#111827" stroke-width="3" points="72.00,255.19 163.11,202.35 254.22,145.89 345.33,95.17 436.44,69.16 527.56,61.11 618.67,88.45 709.78,132.40 800.89,203.35 892.00,257.63" />
<circle cx="72.00" cy="255.19" r="3.5" fill="#111827" />
<circle cx="163.11" cy="202.35" r="3.5" fill="#111827" />
<circle cx="254.22" cy="145.89" r="3.5" fill="#111827" />
<circle cx="345.33" cy="95.17" r="3.5" fill="#111827" />
<circle cx="436.44" cy="69.16" r="3.5" fill="#111827" />
<circle cx="527.56" cy="61.11" r="3.5" fill="#111827" />
<circle cx="618.67" cy="88.45" r="3.5" fill="#111827" />
<circle cx="709.78" cy="132.40" r="3.5" fill="#111827" />
<circle cx="800.89" cy="203.35" r="3.5" fill="#111827" />
<circle cx="892.00" cy="257.63" r="3.5" fill="#111827" />
<line x1="682" y1="24" x2="702" y2="24" stroke="#111827" stroke-width="3" />
<text class="legend" x="710" y="28">Observed proxy SIF</text>
<polyline fill="none" stroke="#dc2626" stroke-width="3" points="72.00,272.68 163.11,249.61 254.22,223.72 345.33,200.31 436.44,189.36 527.56,185.03 618.67,198.65 709.78,219.98 800.89,248.95 892.00,272.90" />
<circle cx="72.00" cy="272.68" r="3.5" fill="#dc2626" />
<circle cx="163.11" cy="249.61" r="3.5" fill="#dc2626" />
<circle cx="254.22" cy="223.72" r="3.5" fill="#dc2626" />
<circle cx="345.33" cy="200.31" r="3.5" fill="#dc2626" />
<circle cx="436.44" cy="189.36" r="3.5" fill="#dc2626" />
<circle cx="527.56" cy="185.03" r="3.5" fill="#dc2626" />
<circle cx="618.67" cy="198.65" r="3.5" fill="#dc2626" />
<circle cx="709.78" cy="219.98" r="3.5" fill="#dc2626" />
<circle cx="800.89" cy="248.95" r="3.5" fill="#dc2626" />
<circle cx="892.00" cy="272.90" r="3.5" fill="#dc2626" />
<line x1="682" y1="42" x2="702" y2="42" stroke="#dc2626" stroke-width="3" />
<text class="legend" x="710" y="46">Initial fit</text>
<polyline fill="none" stroke="#16a34a" stroke-width="3" points="72.00,255.35 163.11,203.69 254.22,145.71 345.33,93.31 436.44,68.78 527.56,59.10 618.67,89.59 709.78,137.33 800.89,202.21 892.00,255.83" />
<circle cx="72.00" cy="255.35" r="3.5" fill="#16a34a" />
<circle cx="163.11" cy="203.69" r="3.5" fill="#16a34a" />
<circle cx="254.22" cy="145.71" r="3.5" fill="#16a34a" />
<circle cx="345.33" cy="93.31" r="3.5" fill="#16a34a" />
<circle cx="436.44" cy="68.78" r="3.5" fill="#16a34a" />
<circle cx="527.56" cy="59.10" r="3.5" fill="#16a34a" />
<circle cx="618.67" cy="89.59" r="3.5" fill="#16a34a" />
<circle cx="709.78" cy="137.33" r="3.5" fill="#16a34a" />
<circle cx="800.89" cy="202.21" r="3.5" fill="#16a34a" />
<circle cx="892.00" cy="255.83" r="3.5" fill="#16a34a" />
<line x1="682" y1="60" x2="702" y2="60" stroke="#16a34a" stroke-width="3" />
<text class="legend" x="710" y="64">Optimized fit</text>
</svg>