<svg xmlns="http://www.w3.org/2000/svg" width="920" height="360" viewBox="0 0 920 360">
<style>text{font-family:Arial,sans-serif;fill:#111827;}.axis{stroke:#9ca3af;stroke-width:1;}.grid{stroke:#e5e7eb;stroke-width:1;}.legend{font-size:12px;}.tick{font-size:11px;fill:#4b5563;}.title{font-size:18px;font-weight:700;}</style>
<text class="title" x="72" y="28">Proxy fluorescence calibration</text>
<text class="tick" x="72" y="344">Time step</text>
<text class="tick" transform="translate(20 166.0) rotate(-90)">Proxy SIF (a.u.)</text>
<line class="grid" x1="72" y1="290.00" x2="892" y2="290.00" />
<text class="tick" x="62" y="294.00" text-anchor="end">-0.00</text>
<line class="grid" x1="72" y1="228.00" x2="892" y2="228.00" />
<text class="tick" x="62" y="232.00" text-anchor="end">0.07</text>
<line class="grid" x1="72" y1="166.00" x2="892" y2="166.00" />
<text class="tick" x="62" y="170.00" text-anchor="end">0.15</text>
<line class="grid" x1="72" y1="104.00" x2="892" y2="104.00" />
<text class="tick" x="62" y="108.00" text-anchor="end">0.23</text>
<line class="grid" x1="72" y1="42.00" x2="892" y2="42.00" />
<text class="tick" x="62" y="46.00" text-anchor="end">0.31</text>
<line class="axis" x1="72" y1="42" x2="72" y2="290" />
<line class="axis" x1="72" y1="290" x2="892" y2="290" />
<line class="grid" x1="72.00" y1="42" x2="72.00" y2="290" />
<text class="tick" x="72.00" y="318" text-anchor="middle">2021-05-25</text>
<line class="grid" x1="163.11" y1="42" x2="163.11" y2="290" />
<text class="tick" x="163.11" y="318" text-anchor="middle">2021-06-02</text>
<line class="grid" x1="254.22" y1="42" x2="254.22" y2="290" />
<text class="tick" x="254.22" y="318" text-anchor="middle">2021-06-10</text>
<line class="grid" x1="345.33" y1="42" x2="345.33" y2="290" />
<text class="tick" x="345.33" y="318" text-anchor="middle">2021-06-18</text>
<line class="grid" x1="436.44" y1="42" x2="436.44" y2="290" />
<text class="tick" x="436.44" y="318" text-anchor="middle">2021-06-26</text>
<line class="grid" x1="527.56" y1="42" x2="527.56" y2="290" />
<text class="tick" x="527.56" y="318" text-anchor="middle">2021-07-04</text>
<line class="grid" x1="618.67" y1="42" x2="618.67" y2="290" />
<text class="tick" x="618.67" y="318" text-anchor="middle">2021-07-12</text>
<line class="grid" x1="709.78" y1="42" x2="709.78" y2="290" />
<text class="tick" x="709.78" y="318" text-anchor="middle">2021-07-20</text>
<line class="grid" x1="800.89" y1="42" x2="800.89" y2="290" />
<text class="tick" x="800.89" y="318" text-anchor="middle">2021-07-28</text>
<line class="grid" x1="892.00" y1="42" x2="892.00" y2="290" />
<text class="tick" x="892.00" y="318" text-anchor="middle">2021-08-05</text>
<polyline fill="none" stroke="#111827" stroke-width="3" points="72.00,255.40 163.11,202.52 254.22,146.01 345.33,95.25 436.44,69.22 527.56,61.17 618.67,88.53 709.78,132.51 800.89,203.52 892.00,nan" />
<circle cx="72.00" cy="255.40" r="3.5" fill="#111827" />
<circle cx="163.11" cy="202.52" r="3.5" fill="#111827" />
<circle cx="254.22" cy="146.01" r="3.5" fill="#111827" />
<circle cx="345.33" cy="95.25" r="3.5" fill="#111827" />
<circle cx="436.44" cy="69.22" r="3.5" fill="#111827" />
<circle cx="527.56" cy="61.17" r="3.5" fill="#111827" />
<circle cx="618.67" cy="88.53" r="3.5" fill="#111827" />
<circle cx="709.78" cy="132.51" r="3.5" fill="#111827" />
<circle cx="800.89" cy="203.52" r="3.5" fill="#111827" />
<circle cx="892.00" cy="nan" r="3.5" fill="#111827" />
<line x1="682" y1="24" x2="702" y2="24" stroke="#111827" stroke-width="3" />
<text class="legend" x="710" y="28">Observed proxy SIF</text>
<polyline fill="none" stroke="#dc2626" stroke-width="3" points="72.00,272.90 163.11,249.81 254.22,223.90 345.33,200.47 436.44,189.51 527.56,185.19 618.67,198.81 709.78,220.16 800.89,249.15 892.00,nan" />
<circle cx="72.00" cy="272.90" r="3.5" fill="#dc2626" />
<circle cx="163.11" cy="249.81" r="3.5" fill="#dc2626" />
<circle cx="254.22" cy="223.90" r="3.5" fill="#dc2626" />
<circle cx="345.33" cy="200.47" r="3.5" fill="#dc2626" />
<circle cx="436.44" cy="189.51" r="3.5" fill="#dc2626" />
<circle cx="527.56" cy="185.19" r="3.5" fill="#dc2626" />
<circle cx="618.67" cy="198.81" r="3.5" fill="#dc2626" />
<circle cx="709.78" cy="220.16" r="3.5" fill="#dc2626" />
<circle cx="800.89" cy="249.15" r="3.5" fill="#dc2626" />
<circle cx="892.00" cy="nan" r="3.5" fill="#dc2626" />
<line x1="682" y1="42" x2="702" y2="42" stroke="#dc2626" stroke-width="3" />
<text class="legend" x="710" y="46">Initial fit</text>
<polyline fill="none" stroke="#16a34a" stroke-width="3" points="72.00,255.55 163.11,203.84 254.22,145.80 345.33,93.34 436.44,68.79 527.56,59.10 618.67,89.62 709.78,137.42 800.89,202.36 892.00,nan" />
<circle cx="72.00" cy="255.55" r="3.5" fill="#16a34a" />
<circle cx="163.11" cy="203.84" r="3.5" fill="#16a34a" />
<circle cx="254.22" cy="145.80" r="3.5" fill="#16a34a" />
<circle cx="345.33" cy="93.34" r="3.5" fill="#16a34a" />
<circle cx="436.44" cy="68.79" r="3.5" fill="#16a34a" />
<circle cx="527.56" cy="59.10" r="3.5" fill="#16a34a" />
<circle cx="618.67" cy="89.62" r="3.5" fill="#16a34a" />
<circle cx="709.78" cy="137.42" r="3.5" fill="#16a34a" />
<circle cx="800.89" cy="202.36" r="3.5" fill="#16a34a" />
<circle cx="892.00" cy="nan" r="3.5" fill="#16a34a" />
<line x1="682" y1="60" x2="702" y2="60" stroke="#16a34a" stroke-width="3" />
<text class="legend" x="710" y="64">Optimized fit</text>
</svg>