<svg xmlns="http://www.w3.org/2000/svg" width="920" height="360" viewBox="0 0 920 360">
<style>text{font-family:Arial,sans-serif;fill:#111827;}.axis{stroke:#9ca3af;stroke-width:1;}.grid{stroke:#e5e7eb;stroke-width:1;}.legend{font-size:12px;}.tick{font-size:11px;fill:#4b5563;}.title{font-size:18px;font-weight:700;}</style>
<text class="title" x="72" y="28">Proxy fluorescence calibration</text>
<text class="tick" x="72" y="344">Time step</text>
<text class="tick" transform="translate(20 166.0) rotate(-90)">Proxy SIF (a.u.)</text>
<line class="grid" x1="72" y1="290.00" x2="892" y2="290.00" />
<text class="tick" x="62" y="294.00" text-anchor="end">-0.00</text>
<line class="grid" x1="72" y1="228.00" x2="892" y2="228.00" />
<text class="tick" x="62" y="232.00" text-anchor="end">0.07</text>
<line class="grid" x1="72" y1="166.00" x2="892" y2="166.00" />
<text class="tick" x="62" y="170.00" text-anchor="end">0.15</text>
<line class="grid" x1="72" y1="104.00" x2="892" y2="104.00" />
<text class="tick" x="62" y="108.00" text-anchor="end">0.23</text>
<line class="grid" x1="72" y1="42.00" x2="892" y2="42.00" />
<text class="tick" x="62" y="46.00" text-anchor="end">0.31</text>
<line class="axis" x1="72" y1="42" x2="72" y2="290" />
<line class="axis" x1="72" y1="290" x2="892" y2="290" />
<line class="grid" x1="72.00" y1="42" x2="72.00" y2="290" />
<text class="tick" x="72.00" y="318" text-anchor="middle">2021-05-25</text>
<line class="grid" x1="163.11" y1="42" x2="163.11" y2="290" />
<text class="tick" x="163.11" y="318" text-anchor="middle">2021-06-02</text>
<line class="grid" x1="254.22" y1="42" x2="254.22" y2="290" />
<text class="tick" x="254.22" y="318" text-anchor="middle">2021-06-10</text>
<line class="grid" x1="345.33" y1="42" x2="345.33" y2="290" />
<text class="tick" x="345.33" y="318" text-anchor="middle">2021-06-18</text>
<line class="grid" x1="436.44" y1="42" x2="436.44" y2="290" />
<text class="tick" x="436.44" y="318" text-anchor="middle">2021-06-26</text>
<line class="grid" x1="527.56" y1="42" x2="527.56" y2="290" />
<text class="tick" x="527.56" y="318" text-anchor="middle">2021-07-04</text>
<line class="grid" x1="618.67" y1="42" x2="618.67" y2="290" />
<text class="tick" x="618.67" y="318" text-anchor="middle">2021-07-12</text>
<line class="grid" x1="709.78" y1="42" x2="709.78" y2="290" />
<text class="tick" x="709.78" y="318" text-anchor="middle">2021-07-20</text>
<line class="grid" x1="800.89" y1="42" x2="800.89" y2="290" />
<text class="tick" x="800.89" y="318" text-anchor="middle">2021-07-28</text>
<line class="grid" x1="892.00" y1="42" x2="892.00" y2="290" />
<text class="tick" x="892.00" y="318" text-anchor="middle">2021-08-05</text>
<polyline fill="none" stroke="#111827" stroke-width="3" points="72.00,255.40 163.11,205.86 254.22,148.18 345.33,95.25 436.44,70.69 527.56,61.11 618.67,90.06 709.78,132.48 800.89,204.64 892.00,257.19" />
<circle cx="72.00" cy="255.40" r="3.5" fill="#111827" />
<circle cx="163.11" cy="205.86" r="3.5" fill="#111827" />
<circle cx="254.22" cy="148.18" r="3.5" fill="#111827" />
<circle cx="345.33" cy="95.25" r="3.5" fill="#111827" />
<circle cx="436.44" cy="70.69" r="3.5" fill="#111827" />
<circle cx="527.56" cy="61.11" r="3.5" fill="#111827" />
<circle cx="618.67" cy="90.06" r="3.5" fill="#111827" />
<circle cx="709.78" cy="132.48" r="3.5" fill="#111827" />
<circle cx="800.89" cy="204.64" r="3.5" fill="#111827" />
<circle cx="892.00" cy="257.19" r="3.5" fill="#111827" />
<line x1="682" y1="24" x2="702" y2="24" stroke="#111827" stroke-width="3" />
<text class="legend" x="710" y="28">Observed proxy SIF</text>
<polyline fill="none" stroke="#dc2626" stroke-width="3" points="72.00,272.90 163.11,251.30 254.22,224.87 345.33,200.48 436.44,190.17 527.56,185.16 618.67,199.50 709.78,220.14 800.89,249.65 892.00,272.83" />
<circle cx="72.00" cy="272.90" r="3.5" fill="#dc2626" />
<circle cx="163.11" cy="251.30" r="3.5" fill="#dc2626" />
<circle cx="254.22" cy="224.87" r="3.5" fill="#dc2626" />
<circle cx="345.33" cy="200.48" r="3.5" fill="#dc2626" />
<circle cx="436.44" cy="190.17" r="3.5" fill="#dc2626" />
<circle cx="527.56" cy="185.16" r="3.5" fill="#dc2626" />
<circle cx="618.67" cy="199.50" r="3.5" fill="#dc2626" />
<circle cx="709.78" cy="220.14" r="3.5" fill="#dc2626" />
<circle cx="800.89" cy="249.65" r="3.5" fill="#dc2626" />
<circle cx="892.00" cy="272.83" r="3.5" fill="#dc2626" />
<line x1="682" y1="42" x2="702" y2="42" stroke="#dc2626" stroke-width="3" />
<text class="legend" x="710" y="46">Initial fit</text>
<polyline fill="none" stroke="#16a34a" stroke-width="3" points="72.00,255.55 163.11,207.19 254.22,148.00 345.33,93.40 436.44,70.31 527.56,59.10 618.67,91.21 709.78,137.43 800.89,203.50 892.00,255.40" />
<circle cx="72.00" cy="255.55" r="3.5" fill="#16a34a" />
<circle cx="163.11" cy="207.19" r="3.5" fill="#16a34a" />
<circle cx="254.22" cy="148.00" r="3.5" fill="#16a34a" />
<circle cx="345.33" cy="93.40" r="3.5" fill="#16a34a" />
<circle cx="436.44" cy="70.31" r="3.5" fill="#16a34a" />
<circle cx="527.56" cy="59.10" r="3.5" fill="#16a34a" />
<circle cx="618.67" cy="91.21" r="3.5" fill="#16a34a" />
<circle cx="709.78" cy="137.43" r="3.5" fill="#16a34a" />
<circle cx="800.89" cy="203.50" r="3.5" fill="#16a34a" />
<circle cx="892.00" cy="255.40" r="3.5" fill="#16a34a" />
<line x1="682" y1="60" x2="702" y2="60" stroke="#16a34a" stroke-width="3" />
<text class="legend" x="710" y="64">Optimized fit</text>
</svg>