<svg xmlns="http://www.w3.org/2000/svg" width="920" height="360" viewBox="0 0 920 360">
<style>text{font-family:Arial,sans-serif;fill:#111827;}.axis{stroke:#9ca3af;stroke-width:1;}.grid{stroke:#e5e7eb;stroke-width:1;}.legend{font-size:12px;}.tick{font-size:11px;fill:#4b5563;}.title{font-size:18px;font-weight:700;}</style>
<text class="title" x="72" y="28">Proxy fluorescence calibration</text>
<text class="tick" x="72" y="344">Time step</text>
<text class="tick" transform="translate(20 166.0) rotate(-90)">Proxy SIF (a.u.)</text>
<line class="grid" x1="72" y1="290.00" x2="892" y2="290.00" />
<text class="tick" x="62" y="294.00" text-anchor="end">-0.01</text>
<line class="grid" x1="72" y1="228.00" x2="892" y2="228.00" />
<text class="tick" x="62" y="232.00" text-anchor="end">0.07</text>
<line class="grid" x1="72" y1="166.00" x2="892" y2="166.00" />
<text class="tick" x="62" y="170.00" text-anchor="end">0.15</text>
<line class="grid" x1="72" y1="104.00" x2="892" y2="104.00" />
<text class="tick" x="62" y="108.00" text-anchor="end">0.23</text>
<line class="grid" x1="72" y1="42.00" x2="892" y2="42.00" />
<text class="tick" x="62" y="46.00" text-anchor="end">0.31</text>
<line class="axis" x1="72" y1="42" x2="72" y2="290" />
<line class="axis" x1="72" y1="290" x2="892" y2="290" />
<line class="grid" x1="72.00" y1="42" x2="72.00" y2="290" />
<text class="tick" x="72.00" y="318" text-anchor="middle">2021-05-25</text>
<line class="grid" x1="163.11" y1="42" x2="163.11" y2="290" />
<text class="tick" x="163.11" y="318" text-anchor="middle">2021-06-02</text>
<line class="grid" x1="254.22" y1="42" x2="254.22" y2="290" />
<text class="tick" x="254.22" y="318" text-anchor="middle">2021-06-10</text>
<line class="grid" x1="345.33" y1="42" x2="345.33" y2="290" />
<text class="tick" x="345.33" y="318" text-anchor="middle">2021-06-18</text>
<line class="grid" x1="436.44" y1="42" x2="436.44" y2="290" />
<text class="tick" x="436.44" y="318" text-anchor="middle">2021-06-26</text>
<line class="grid" x1="527.56" y1="42" x2="527.56" y2="290" />
<text class="tick" x="527.56" y="318" text-anchor="middle">2021-07-04</text>
<line class="grid" x1="618.67" y1="42" x2="618.67" y2="290" />
<text class="tick" x="618.67" y="318" text-anchor="middle">2021-07-12</text>
<line class="grid" x1="709.78" y1="42" x2="709.78" y2="290" />
<text class="tick" x="709.78" y="318" text-anchor="middle">2021-07-20</text>
<line class="grid" x1="800.89" y1="42" x2="800.89" y2="290" />
<text class="tick" x="800.89" y="318" text-anchor="middle">2021-07-28</text>
<line class="grid" x1="892.00" y1="42" x2="892.00" y2="290" />
<text class="tick" x="892.00" y="318" text-anchor="middle">2021-08-05</text>
<polyline fill="none" stroke="#111827" stroke-width="3" points="72.00,258.21 163.11,208.84 254.22,151.23 345.33,97.16 436.44,59.31 527.56,65.05 618.67,102.40 709.78,149.64 800.89,215.22 892.00,262.76" />
<circle cx="72.00" cy="258.21" r="3.5" fill="#111827" />
<circle cx="163.11" cy="208.84" r="3.5" fill="#111827" />
<circle cx="254.22" cy="151.23" r="3.5" fill="#111827" />
<circle cx="345.33" cy="97.16" r="3.5" fill="#111827" />
<circle cx="436.44" cy="59.31" r="3.5" fill="#111827" />
<circle cx="527.56" cy="65.05" r="3.5" fill="#111827" />
<circle cx="618.67" cy="102.40" r="3.5" fill="#111827" />
<circle cx="709.78" cy="149.64" r="3.5" fill="#111827" />
<circle cx="800.89" cy="215.22" r="3.5" fill="#111827" />
<circle cx="892.00" cy="262.76" r="3.5" fill="#111827" />
<line x1="682" y1="24" x2="702" y2="24" stroke="#111827" stroke-width="3" />
<text class="legend" x="710" y="28">Observed proxy SIF</text>
<polyline fill="none" stroke="#dc2626" stroke-width="3" points="72.00,271.75 163.11,250.22 254.22,223.81 345.33,198.92 436.44,182.71 527.56,184.50 618.67,202.58 709.78,225.36 800.89,251.94 892.00,272.90" />
<circle cx="72.00" cy="271.75" r="3.5" fill="#dc2626" />
<circle cx="163.11" cy="250.22" r="3.5" fill="#dc2626" />
<circle cx="254.22" cy="223.81" r="3.5" fill="#dc2626" />
<circle cx="345.33" cy="198.92" r="3.5" fill="#dc2626" />
<circle cx="436.44" cy="182.71" r="3.5" fill="#dc2626" />
<circle cx="527.56" cy="184.50" r="3.5" fill="#dc2626" />
<circle cx="618.67" cy="202.58" r="3.5" fill="#dc2626" />
<circle cx="709.78" cy="225.36" r="3.5" fill="#dc2626" />
<circle cx="800.89" cy="251.94" r="3.5" fill="#dc2626" />
<circle cx="892.00" cy="272.90" r="3.5" fill="#dc2626" />
<line x1="682" y1="42" x2="702" y2="42" stroke="#dc2626" stroke-width="3" />
<text class="legend" x="710" y="46">Initial fit</text>
<polyline fill="none" stroke="#16a34a" stroke-width="3" points="72.00,258.36 163.11,210.18 254.22,151.09 345.33,95.38 436.44,59.10 527.56,63.13 618.67,103.58 709.78,154.56 800.89,214.05 892.00,260.92" />
<circle cx="72.00" cy="258.36" r="3.5" fill="#16a34a" />
<circle cx="163.11" cy="210.18" r="3.5" fill="#16a34a" />
<circle cx="254.22" cy="151.09" r="3.5" fill="#16a34a" />
<circle cx="345.33" cy="95.38" r="3.5" fill="#16a34a" />
<circle cx="436.44" cy="59.10" r="3.5" fill="#16a34a" />
<circle cx="527.56" cy="63.13" r="3.5" fill="#16a34a" />
<circle cx="618.67" cy="103.58" r="3.5" fill="#16a34a" />
<circle cx="709.78" cy="154.56" r="3.5" fill="#16a34a" />
<circle cx="800.89" cy="214.05" r="3.5" fill="#16a34a" />
<circle cx="892.00" cy="260.92" r="3.5" fill="#16a34a" />
<line x1="682" y1="60" x2="702" y2="60" stroke="#16a34a" stroke-width="3" />
<text class="legend" x="710" y="64">Optimized fit</text>
</svg>