<svg xmlns="http://www.w3.org/2000/svg" width="920" height="360" viewBox="0 0 920 360">
<style>text{font-family:Arial,sans-serif;fill:#111827;}.axis{stroke:#9ca3af;stroke-width:1;}.grid{stroke:#e5e7eb;stroke-width:1;}.legend{font-size:12px;}.tick{font-size:11px;fill:#4b5563;}.title{font-size:18px;font-weight:700;}</style>
<text class="title" x="72" y="28">Direct and diffuse shortwave forcing</text>
<text class="tick" x="72" y="344">Time step</text>
<text class="tick" transform="translate(20 166.0) rotate(-90)">Radiation (W m-2)</text>
<line class="grid" x1="72" y1="290.00" x2="892" y2="290.00" />
<text class="tick" x="62" y="294.00" text-anchor="end">9.87</text>
<line class="grid" x1="72" y1="228.00" x2="892" y2="228.00" />
<text class="tick" x="62" y="232.00" text-anchor="end">152.03</text>
<line class="grid" x1="72" y1="166.00" x2="892" y2="166.00" />
<text class="tick" x="62" y="170.00" text-anchor="end">294.19</text>
<line class="grid" x1="72" y1="104.00" x2="892" y2="104.00" />
<text class="tick" x="62" y="108.00" text-anchor="end">436.35</text>
<line class="grid" x1="72" y1="42.00" x2="892" y2="42.00" />
<text class="tick" x="62" y="46.00" text-anchor="end">578.51</text>
<line class="axis" x1="72" y1="42" x2="72" y2="290" />
<line class="axis" x1="72" y1="290" x2="892" y2="290" />
<line class="grid" x1="72.00" y1="42" x2="72.00" y2="290" />
<text class="tick" x="72.00" y="318" text-anchor="middle">2021-05-25</text>
<line class="grid" x1="163.11" y1="42" x2="163.11" y2="290" />
<text class="tick" x="163.11" y="318" text-anchor="middle">2021-06-02</text>
<line class="grid" x1="254.22" y1="42" x2="254.22" y2="290" />
<text class="tick" x="254.22" y="318" text-anchor="middle">2021-06-10</text>
<line class="grid" x1="345.33" y1="42" x2="345.33" y2="290" />
<text class="tick" x="345.33" y="318" text-anchor="middle">2021-06-18</text>
<line class="grid" x1="436.44" y1="42" x2="436.44" y2="290" />
<text class="tick" x="436.44" y="318" text-anchor="middle">2021-06-26</text>
<line class="grid" x1="527.56" y1="42" x2="527.56" y2="290" />
<text class="tick" x="527.56" y="318" text-anchor="middle">2021-07-04</text>
<line class="grid" x1="618.67" y1="42" x2="618.67" y2="290" />
<text class="tick" x="618.67" y="318" text-anchor="middle">2021-07-12</text>
<line class="grid" x1="709.78" y1="42" x2="709.78" y2="290" />
<text class="tick" x="709.78" y="318" text-anchor="middle">2021-07-20</text>
<line class="grid" x1="800.89" y1="42" x2="800.89" y2="290" />
<text class="tick" x="800.89" y="318" text-anchor="middle">2021-07-28</text>
<line class="grid" x1="892.00" y1="42" x2="892.00" y2="290" />
<text class="tick" x="892.00" y="318" text-anchor="middle">2021-08-05</text>
<polyline fill="none" stroke="#c2410c" stroke-width="3" points="72.00,264.61 163.11,272.90 254.22,267.05 345.33,254.57 436.44,249.08 527.56,235.38 618.67,241.76 709.78,228.60 800.89,251.34 892.00,239.47" />
<circle cx="72.00" cy="264.61" r="3.5" fill="#c2410c" />
<circle cx="163.11" cy="272.90" r="3.5" fill="#c2410c" />
<circle cx="254.22" cy="267.05" r="3.5" fill="#c2410c" />
<circle cx="345.33" cy="254.57" r="3.5" fill="#c2410c" />
<circle cx="436.44" cy="249.08" r="3.5" fill="#c2410c" />
<circle cx="527.56" cy="235.38" r="3.5" fill="#c2410c" />
<circle cx="618.67" cy="241.76" r="3.5" fill="#c2410c" />
<circle cx="709.78" cy="228.60" r="3.5" fill="#c2410c" />
<circle cx="800.89" cy="251.34" r="3.5" fill="#c2410c" />
<circle cx="892.00" cy="239.47" r="3.5" fill="#c2410c" />
<line x1="682" y1="24" x2="702" y2="24" stroke="#c2410c" stroke-width="3" />
<text class="legend" x="710" y="28">Direct shortwave</text>
<polyline fill="none" stroke="#2563eb" stroke-width="3" points="72.00,76.59 163.11,86.53 254.22,76.67 345.33,64.78 436.44,62.19 527.56,59.10 618.67,62.80 709.78,63.49 800.89,72.94 892.00,73.42" />
<circle cx="72.00" cy="76.59" r="3.5" fill="#2563eb" />
<circle cx="163.11" cy="86.53" r="3.5" fill="#2563eb" />
<circle cx="254.22" cy="76.67" r="3.5" fill="#2563eb" />
<circle cx="345.33" cy="64.78" r="3.5" fill="#2563eb" />
<circle cx="436.44" cy="62.19" r="3.5" fill="#2563eb" />
<circle cx="527.56" cy="59.10" r="3.5" fill="#2563eb" />
<circle cx="618.67" cy="62.80" r="3.5" fill="#2563eb" />
<circle cx="709.78" cy="63.49" r="3.5" fill="#2563eb" />
<circle cx="800.89" cy="72.94" r="3.5" fill="#2563eb" />
<circle cx="892.00" cy="73.42" r="3.5" fill="#2563eb" />
<line x1="682" y1="42" x2="702" y2="42" stroke="#2563eb" stroke-width="3" />
<text class="legend" x="710" y="46">Diffuse shortwave</text>
</svg>