<?xml version="1.0" encoding="utf-8" standalone="no"?>
<!DOCTYPE svg PUBLIC "-//W3C//DTD SVG 1.1//EN"
  "http://www.w3.org/Graphics/SVG/1.1/DTD/svg11.dtd">
<svg xmlns:xlink="http://www.w3.org/1999/xlink" width="720pt" height="921.6pt" viewBox="0 0 720 921.6" xmlns="http://www.w3.org/2000/svg" version="1.1">
 <metadata>
  <rdf:RDF xmlns:dc="http://purl.org/dc/elements/1.1/" xmlns:cc="http://creativecommons.org/ns#" xmlns:rdf="http://www.w3.org/1999/02/22-rdf-syntax-ns#">
   <cc:Work>
    <dc:type rdf:resource="http://purl.org/dc/dcmitype/StillImage"/>
    <dc:date>2026-04-17T22:52:00.722641</dc:date>
    <dc:format>image/svg+xml</dc:format>
    <dc:creator>
     <cc:Agent>
      <dc:title>Matplotlib v3.10.8, https://matplotlib.org/</dc:title>
     </cc:Agent>
    </dc:creator>
   </cc:Work>
  </rdf:RDF>
 </metadata>
 <defs>
  <style type="text/css">*{stroke-linejoin: round; stroke-linecap: butt}</style>
 </defs>
 <g id="figure_1">
  <g id="patch_1">
   <path d="M 0 921.6 
L 720 921.6 
L 720 0 
L 0 0 
z
" style="fill: #ffffff"/>
  </g>
  <g id="axes_1">
   <g id="patch_2">
    <path d="M 39.94 230.634734 
L 700.979817 230.634734 
L 700.979817 50.64 
L 39.94 50.64 
z
" style="fill: #ffffff"/>
   </g>
   <g id="matplotlib.axis_1">
    <g id="xtick_1">
     <g id="line2d_1">
      <path d="M 114.190232 230.634734 
L 114.190232 50.64 
" clip-path="url(#p8d43cc00f8)" style="fill: none; stroke: #b0b0b0; stroke-opacity: 0.25; stroke-width: 0.8; stroke-linecap: square"/>
     </g>
     <g id="line2d_2">
      <defs>
       <path id="m7cf79d54dd" d="M 0 0 
L 0 3.5 
" style="stroke: #000000; stroke-width: 0.8"/>
      </defs>
      <g>
       <use xlink:href="#m7cf79d54dd" x="114.190232" y="230.634734" style="stroke: #000000; stroke-width: 0.8"/>
      </g>
     </g>
    </g>
    <g id="xtick_2">
     <g id="line2d_3">
      <path d="M 178.905689 230.634734 
L 178.905689 50.64 
" clip-path="url(#p8d43cc00f8)" style="fill: none; stroke: #b0b0b0; stroke-opacity: 0.25; stroke-width: 0.8; stroke-linecap: square"/>
     </g>
     <g id="line2d_4">
      <g>
       <use xlink:href="#m7cf79d54dd" x="178.905689" y="230.634734" style="stroke: #000000; stroke-width: 0.8"/>
      </g>
     </g>
    </g>
    <g id="xtick_3">
     <g id="line2d_5">
      <path d="M 252.86621 230.634734 
L 252.86621 50.64 
" clip-path="url(#p8d43cc00f8)" style="fill: none; stroke: #b0b0b0; stroke-opacity: 0.25; stroke-width: 0.8; stroke-linecap: square"/>
     </g>
     <g id="line2d_6">
      <g>
       <use xlink:href="#m7cf79d54dd" x="252.86621" y="230.634734" style="stroke: #000000; stroke-width: 0.8"/>
      </g>
     </g>
    </g>
    <g id="xtick_4">
     <g id="line2d_7">
      <path d="M 317.581667 230.634734 
L 317.581667 50.64 
" clip-path="url(#p8d43cc00f8)" style="fill: none; stroke: #b0b0b0; stroke-opacity: 0.25; stroke-width: 0.8; stroke-linecap: square"/>
     </g>
     <g id="line2d_8">
      <g>
       <use xlink:href="#m7cf79d54dd" x="317.581667" y="230.634734" style="stroke: #000000; stroke-width: 0.8"/>
      </g>
     </g>
    </g>
    <g id="xtick_5">
     <g id="line2d_9">
      <path d="M 396.164721 230.634734 
L 396.164721 50.64 
" clip-path="url(#p8d43cc00f8)" style="fill: none; stroke: #b0b0b0; stroke-opacity: 0.25; stroke-width: 0.8; stroke-linecap: square"/>
     </g>
     <g id="line2d_10">
      <g>
       <use xlink:href="#m7cf79d54dd" x="396.164721" y="230.634734" style="stroke: #000000; stroke-width: 0.8"/>
      </g>
     </g>
    </g>
    <g id="xtick_6">
     <g id="line2d_11">
      <path d="M 460.880177 230.634734 
L 460.880177 50.64 
" clip-path="url(#p8d43cc00f8)" style="fill: none; stroke: #b0b0b0; stroke-opacity: 0.25; stroke-width: 0.8; stroke-linecap: square"/>
     </g>
     <g id="line2d_12">
      <g>
       <use xlink:href="#m7cf79d54dd" x="460.880177" y="230.634734" style="stroke: #000000; stroke-width: 0.8"/>
      </g>
     </g>
    </g>
    <g id="xtick_7">
     <g id="line2d_13">
      <path d="M 539.463231 230.634734 
L 539.463231 50.64 
" clip-path="url(#p8d43cc00f8)" style="fill: none; stroke: #b0b0b0; stroke-opacity: 0.25; stroke-width: 0.8; stroke-linecap: square"/>
     </g>
     <g id="line2d_14">
      <g>
       <use xlink:href="#m7cf79d54dd" x="539.463231" y="230.634734" style="stroke: #000000; stroke-width: 0.8"/>
      </g>
     </g>
    </g>
    <g id="xtick_8">
     <g id="line2d_15">
      <path d="M 604.178688 230.634734 
L 604.178688 50.64 
" clip-path="url(#p8d43cc00f8)" style="fill: none; stroke: #b0b0b0; stroke-opacity: 0.25; stroke-width: 0.8; stroke-linecap: square"/>
     </g>
     <g id="line2d_16">
      <g>
       <use xlink:href="#m7cf79d54dd" x="604.178688" y="230.634734" style="stroke: #000000; stroke-width: 0.8"/>
      </g>
     </g>
    </g>
    <g id="xtick_9">
     <g id="line2d_17">
      <path d="M 678.139209 230.634734 
L 678.139209 50.64 
" clip-path="url(#p8d43cc00f8)" style="fill: none; stroke: #b0b0b0; stroke-opacity: 0.25; stroke-width: 0.8; stroke-linecap: square"/>
     </g>
     <g id="line2d_18">
      <g>
       <use xlink:href="#m7cf79d54dd" x="678.139209" y="230.634734" style="stroke: #000000; stroke-width: 0.8"/>
      </g>
     </g>
    </g>
   </g>
   <g id="matplotlib.axis_2">
    <g id="ytick_1">
     <g id="line2d_19">
      <path d="M 39.94 229.314936 
L 700.979817 229.314936 
" clip-path="url(#p8d43cc00f8)" style="fill: none; stroke: #b0b0b0; stroke-opacity: 0.25; stroke-width: 0.8; stroke-linecap: square"/>
     </g>
     <g id="line2d_20">
      <defs>
       <path id="m83ff238738" d="M 0 0 
L -3.5 0 
" style="stroke: #000000; stroke-width: 0.8"/>
      </defs>
      <g>
       <use xlink:href="#m83ff238738" x="39.94" y="229.314936" style="stroke: #000000; stroke-width: 0.8"/>
      </g>
     </g>
     <g id="text_1">
      <!-- 0.2 -->
      <g transform="translate(17.036875 233.114155) scale(0.1 -0.1)">
       <defs>
        <path id="DejaVuSans-30" d="M 2034 4250 
Q 1547 4250 1301 3770 
Q 1056 3291 1056 2328 
Q 1056 1369 1301 889 
Q 1547 409 2034 409 
Q 2525 409 2770 889 
Q 3016 1369 3016 2328 
Q 3016 3291 2770 3770 
Q 2525 4250 2034 4250 
z
M 2034 4750 
Q 2819 4750 3233 4129 
Q 3647 3509 3647 2328 
Q 3647 1150 3233 529 
Q 2819 -91 2034 -91 
Q 1250 -91 836 529 
Q 422 1150 422 2328 
Q 422 3509 836 4129 
Q 1250 4750 2034 4750 
z
" transform="scale(0.015625)"/>
        <path id="DejaVuSans-2e" d="M 684 794 
L 1344 794 
L 1344 0 
L 684 0 
L 684 794 
z
" transform="scale(0.015625)"/>
        <path id="DejaVuSans-32" d="M 1228 531 
L 3431 531 
L 3431 0 
L 469 0 
L 469 531 
Q 828 903 1448 1529 
Q 2069 2156 2228 2338 
Q 2531 2678 2651 2914 
Q 2772 3150 2772 3378 
Q 2772 3750 2511 3984 
Q 2250 4219 1831 4219 
Q 1534 4219 1204 4116 
Q 875 4013 500 3803 
L 500 4441 
Q 881 4594 1212 4672 
Q 1544 4750 1819 4750 
Q 2544 4750 2975 4387 
Q 3406 4025 3406 3419 
Q 3406 3131 3298 2873 
Q 3191 2616 2906 2266 
Q 2828 2175 2409 1742 
Q 1991 1309 1228 531 
z
" transform="scale(0.015625)"/>
       </defs>
       <use xlink:href="#DejaVuSans-30"/>
       <use xlink:href="#DejaVuSans-2e" transform="translate(63.623047 0)"/>
       <use xlink:href="#DejaVuSans-32" transform="translate(95.410156 0)"/>
      </g>
     </g>
    </g>
    <g id="ytick_2">
     <g id="line2d_21">
      <path d="M 39.94 206.102193 
L 700.979817 206.102193 
" clip-path="url(#p8d43cc00f8)" style="fill: none; stroke: #b0b0b0; stroke-opacity: 0.25; stroke-width: 0.8; stroke-linecap: square"/>
     </g>
     <g id="line2d_22">
      <g>
       <use xlink:href="#m83ff238738" x="39.94" y="206.102193" style="stroke: #000000; stroke-width: 0.8"/>
      </g>
     </g>
     <g id="text_2">
      <!-- 0.3 -->
      <g transform="translate(17.036875 209.901412) scale(0.1 -0.1)">
       <defs>
        <path id="DejaVuSans-33" d="M 2597 2516 
Q 3050 2419 3304 2112 
Q 3559 1806 3559 1356 
Q 3559 666 3084 287 
Q 2609 -91 1734 -91 
Q 1441 -91 1130 -33 
Q 819 25 488 141 
L 488 750 
Q 750 597 1062 519 
Q 1375 441 1716 441 
Q 2309 441 2620 675 
Q 2931 909 2931 1356 
Q 2931 1769 2642 2001 
Q 2353 2234 1838 2234 
L 1294 2234 
L 1294 2753 
L 1863 2753 
Q 2328 2753 2575 2939 
Q 2822 3125 2822 3475 
Q 2822 3834 2567 4026 
Q 2313 4219 1838 4219 
Q 1578 4219 1281 4162 
Q 984 4106 628 3988 
L 628 4550 
Q 988 4650 1302 4700 
Q 1616 4750 1894 4750 
Q 2613 4750 3031 4423 
Q 3450 4097 3450 3541 
Q 3450 3153 3228 2886 
Q 3006 2619 2597 2516 
z
" transform="scale(0.015625)"/>
       </defs>
       <use xlink:href="#DejaVuSans-30"/>
       <use xlink:href="#DejaVuSans-2e" transform="translate(63.623047 0)"/>
       <use xlink:href="#DejaVuSans-33" transform="translate(95.410156 0)"/>
      </g>
     </g>
    </g>
    <g id="ytick_3">
     <g id="line2d_23">
      <path d="M 39.94 182.88945 
L 700.979817 182.88945 
" clip-path="url(#p8d43cc00f8)" style="fill: none; stroke: #b0b0b0; stroke-opacity: 0.25; stroke-width: 0.8; stroke-linecap: square"/>
     </g>
     <g id="line2d_24">
      <g>
       <use xlink:href="#m83ff238738" x="39.94" y="182.88945" style="stroke: #000000; stroke-width: 0.8"/>
      </g>
     </g>
     <g id="text_3">
      <!-- 0.4 -->
      <g transform="translate(17.036875 186.688669) scale(0.1 -0.1)">
       <defs>
        <path id="DejaVuSans-34" d="M 2419 4116 
L 825 1625 
L 2419 1625 
L 2419 4116 
z
M 2253 4666 
L 3047 4666 
L 3047 1625 
L 3713 1625 
L 3713 1100 
L 3047 1100 
L 3047 0 
L 2419 0 
L 2419 1100 
L 313 1100 
L 313 1709 
L 2253 4666 
z
" transform="scale(0.015625)"/>
       </defs>
       <use xlink:href="#DejaVuSans-30"/>
       <use xlink:href="#DejaVuSans-2e" transform="translate(63.623047 0)"/>
       <use xlink:href="#DejaVuSans-34" transform="translate(95.410156 0)"/>
      </g>
     </g>
    </g>
    <g id="ytick_4">
     <g id="line2d_25">
      <path d="M 39.94 159.676708 
L 700.979817 159.676708 
" clip-path="url(#p8d43cc00f8)" style="fill: none; stroke: #b0b0b0; stroke-opacity: 0.25; stroke-width: 0.8; stroke-linecap: square"/>
     </g>
     <g id="line2d_26">
      <g>
       <use xlink:href="#m83ff238738" x="39.94" y="159.676708" style="stroke: #000000; stroke-width: 0.8"/>
      </g>
     </g>
     <g id="text_4">
      <!-- 0.5 -->
      <g transform="translate(17.036875 163.475926) scale(0.1 -0.1)">
       <defs>
        <path id="DejaVuSans-35" d="M 691 4666 
L 3169 4666 
L 3169 4134 
L 1269 4134 
L 1269 2991 
Q 1406 3038 1543 3061 
Q 1681 3084 1819 3084 
Q 2600 3084 3056 2656 
Q 3513 2228 3513 1497 
Q 3513 744 3044 326 
Q 2575 -91 1722 -91 
Q 1428 -91 1123 -41 
Q 819 9 494 109 
L 494 744 
Q 775 591 1075 516 
Q 1375 441 1709 441 
Q 2250 441 2565 725 
Q 2881 1009 2881 1497 
Q 2881 1984 2565 2268 
Q 2250 2553 1709 2553 
Q 1456 2553 1204 2497 
Q 953 2441 691 2322 
L 691 4666 
z
" transform="scale(0.015625)"/>
       </defs>
       <use xlink:href="#DejaVuSans-30"/>
       <use xlink:href="#DejaVuSans-2e" transform="translate(63.623047 0)"/>
       <use xlink:href="#DejaVuSans-35" transform="translate(95.410156 0)"/>
      </g>
     </g>
    </g>
    <g id="ytick_5">
     <g id="line2d_27">
      <path d="M 39.94 136.463965 
L 700.979817 136.463965 
" clip-path="url(#p8d43cc00f8)" style="fill: none; stroke: #b0b0b0; stroke-opacity: 0.25; stroke-width: 0.8; stroke-linecap: square"/>
     </g>
     <g id="line2d_28">
      <g>
       <use xlink:href="#m83ff238738" x="39.94" y="136.463965" style="stroke: #000000; stroke-width: 0.8"/>
      </g>
     </g>
     <g id="text_5">
      <!-- 0.6 -->
      <g transform="translate(17.036875 140.263184) scale(0.1 -0.1)">
       <defs>
        <path id="DejaVuSans-36" d="M 2113 2584 
Q 1688 2584 1439 2293 
Q 1191 2003 1191 1497 
Q 1191 994 1439 701 
Q 1688 409 2113 409 
Q 2538 409 2786 701 
Q 3034 994 3034 1497 
Q 3034 2003 2786 2293 
Q 2538 2584 2113 2584 
z
M 3366 4563 
L 3366 3988 
Q 3128 4100 2886 4159 
Q 2644 4219 2406 4219 
Q 1781 4219 1451 3797 
Q 1122 3375 1075 2522 
Q 1259 2794 1537 2939 
Q 1816 3084 2150 3084 
Q 2853 3084 3261 2657 
Q 3669 2231 3669 1497 
Q 3669 778 3244 343 
Q 2819 -91 2113 -91 
Q 1303 -91 875 529 
Q 447 1150 447 2328 
Q 447 3434 972 4092 
Q 1497 4750 2381 4750 
Q 2619 4750 2861 4703 
Q 3103 4656 3366 4563 
z
" transform="scale(0.015625)"/>
       </defs>
       <use xlink:href="#DejaVuSans-30"/>
       <use xlink:href="#DejaVuSans-2e" transform="translate(63.623047 0)"/>
       <use xlink:href="#DejaVuSans-36" transform="translate(95.410156 0)"/>
      </g>
     </g>
    </g>
    <g id="ytick_6">
     <g id="line2d_29">
      <path d="M 39.94 113.251222 
L 700.979817 113.251222 
" clip-path="url(#p8d43cc00f8)" style="fill: none; stroke: #b0b0b0; stroke-opacity: 0.25; stroke-width: 0.8; stroke-linecap: square"/>
     </g>
     <g id="line2d_30">
      <g>
       <use xlink:href="#m83ff238738" x="39.94" y="113.251222" style="stroke: #000000; stroke-width: 0.8"/>
      </g>
     </g>
     <g id="text_6">
      <!-- 0.7 -->
      <g transform="translate(17.036875 117.050441) scale(0.1 -0.1)">
       <defs>
        <path id="DejaVuSans-37" d="M 525 4666 
L 3525 4666 
L 3525 4397 
L 1831 0 
L 1172 0 
L 2766 4134 
L 525 4134 
L 525 4666 
z
" transform="scale(0.015625)"/>
       </defs>
       <use xlink:href="#DejaVuSans-30"/>
       <use xlink:href="#DejaVuSans-2e" transform="translate(63.623047 0)"/>
       <use xlink:href="#DejaVuSans-37" transform="translate(95.410156 0)"/>
      </g>
     </g>
    </g>
    <g id="ytick_7">
     <g id="line2d_31">
      <path d="M 39.94 90.038479 
L 700.979817 90.038479 
" clip-path="url(#p8d43cc00f8)" style="fill: none; stroke: #b0b0b0; stroke-opacity: 0.25; stroke-width: 0.8; stroke-linecap: square"/>
     </g>
     <g id="line2d_32">
      <g>
       <use xlink:href="#m83ff238738" x="39.94" y="90.038479" style="stroke: #000000; stroke-width: 0.8"/>
      </g>
     </g>
     <g id="text_7">
      <!-- 0.8 -->
      <g transform="translate(17.036875 93.837698) scale(0.1 -0.1)">
       <defs>
        <path id="DejaVuSans-38" d="M 2034 2216 
Q 1584 2216 1326 1975 
Q 1069 1734 1069 1313 
Q 1069 891 1326 650 
Q 1584 409 2034 409 
Q 2484 409 2743 651 
Q 3003 894 3003 1313 
Q 3003 1734 2745 1975 
Q 2488 2216 2034 2216 
z
M 1403 2484 
Q 997 2584 770 2862 
Q 544 3141 544 3541 
Q 544 4100 942 4425 
Q 1341 4750 2034 4750 
Q 2731 4750 3128 4425 
Q 3525 4100 3525 3541 
Q 3525 3141 3298 2862 
Q 3072 2584 2669 2484 
Q 3125 2378 3379 2068 
Q 3634 1759 3634 1313 
Q 3634 634 3220 271 
Q 2806 -91 2034 -91 
Q 1263 -91 848 271 
Q 434 634 434 1313 
Q 434 1759 690 2068 
Q 947 2378 1403 2484 
z
M 1172 3481 
Q 1172 3119 1398 2916 
Q 1625 2713 2034 2713 
Q 2441 2713 2670 2916 
Q 2900 3119 2900 3481 
Q 2900 3844 2670 4047 
Q 2441 4250 2034 4250 
Q 1625 4250 1398 4047 
Q 1172 3844 1172 3481 
z
" transform="scale(0.015625)"/>
       </defs>
       <use xlink:href="#DejaVuSans-30"/>
       <use xlink:href="#DejaVuSans-2e" transform="translate(63.623047 0)"/>
       <use xlink:href="#DejaVuSans-38" transform="translate(95.410156 0)"/>
      </g>
     </g>
    </g>
    <g id="ytick_8">
     <g id="line2d_33">
      <path d="M 39.94 66.825736 
L 700.979817 66.825736 
" clip-path="url(#p8d43cc00f8)" style="fill: none; stroke: #b0b0b0; stroke-opacity: 0.25; stroke-width: 0.8; stroke-linecap: square"/>
     </g>
     <g id="line2d_34">
      <g>
       <use xlink:href="#m83ff238738" x="39.94" y="66.825736" style="stroke: #000000; stroke-width: 0.8"/>
      </g>
     </g>
     <g id="text_8">
      <!-- 0.9 -->
      <g transform="translate(17.036875 70.624955) scale(0.1 -0.1)">
       <defs>
        <path id="DejaVuSans-39" d="M 703 97 
L 703 672 
Q 941 559 1184 500 
Q 1428 441 1663 441 
Q 2288 441 2617 861 
Q 2947 1281 2994 2138 
Q 2813 1869 2534 1725 
Q 2256 1581 1919 1581 
Q 1219 1581 811 2004 
Q 403 2428 403 3163 
Q 403 3881 828 4315 
Q 1253 4750 1959 4750 
Q 2769 4750 3195 4129 
Q 3622 3509 3622 2328 
Q 3622 1225 3098 567 
Q 2575 -91 1691 -91 
Q 1453 -91 1209 -44 
Q 966 3 703 97 
z
M 1959 2075 
Q 2384 2075 2632 2365 
Q 2881 2656 2881 3163 
Q 2881 3666 2632 3958 
Q 2384 4250 1959 4250 
Q 1534 4250 1286 3958 
Q 1038 3666 1038 3163 
Q 1038 2656 1286 2365 
Q 1534 2075 1959 2075 
z
" transform="scale(0.015625)"/>
       </defs>
       <use xlink:href="#DejaVuSans-30"/>
       <use xlink:href="#DejaVuSans-2e" transform="translate(63.623047 0)"/>
       <use xlink:href="#DejaVuSans-39" transform="translate(95.410156 0)"/>
      </g>
     </g>
    </g>
   </g>
   <g id="line2d_35">
    <path d="M 69.987264 222.453155 
L 106.967525 217.863371 
L 106.983576 217.844492 
L 116.21259 217.129492 
L 116.228641 217.108904 
L 130.080188 214.988979 
L 130.096239 214.96462 
L 139.325253 212.345946 
L 139.341304 212.319112 
L 153.192851 207.441759 
L 153.208902 207.407142 
L 162.437916 201.364269 
L 162.453967 201.318873 
L 176.305514 187.853497 
L 176.321565 187.786718 
L 185.550579 171.471014 
L 185.56663 171.356882 
L 231.775905 91.778019 
L 231.791956 91.504705 
L 245.643503 78.177287 
L 245.659554 77.854814 
L 278.001231 63.215257 
L 291.868829 60.423967 
L 301.113894 59.342624 
L 338.094155 58.821579 
L 347.33922 59.403571 
L 347.355271 58.931823 
L 370.451883 61.696742 
L 384.319481 63.652581 
L 384.335532 63.177928 
L 407.432144 67.885238 
L 416.677209 69.979076 
L 430.544807 73.509672 
L 439.789872 76.036462 
L 462.902535 82.936634 
L 509.127861 101.841832 
L 522.995459 109.853743 
L 546.108122 125.850752 
L 546.124172 125.601498 
L 555.353187 132.582485 
L 555.369238 132.357597 
L 569.220785 143.143905 
L 578.46585 150.0675 
L 578.481901 149.897596 
L 592.333448 159.28298 
L 615.446111 173.104381 
L 615.462161 172.98964 
L 624.691176 177.667147 
L 624.707227 177.560763 
L 647.803839 187.365582 
L 647.81989 187.275808 
L 670.916502 153.875506 
L 670.932553 153.669227 
" clip-path="url(#p8d43cc00f8)" style="fill: none; stroke: #1d4ed8; stroke-width: 2; stroke-linecap: square"/>
   </g>
   <g id="line2d_36">
    <path d="M 69.987264 222.453155 
L 106.967525 217.863371 
L 106.983576 217.844492 
L 116.21259 217.129492 
L 116.228641 217.108904 
L 130.080188 214.988979 
L 130.096239 214.96462 
L 139.325253 212.345946 
L 139.341304 212.319112 
L 153.192851 207.441759 
L 153.208902 207.407142 
L 162.437916 201.364269 
L 162.453967 201.318873 
L 176.305514 187.853497 
L 176.321565 187.786718 
L 185.550579 171.471014 
L 185.56663 171.356882 
L 231.775905 91.778019 
L 231.791956 91.504705 
L 245.643503 78.177287 
L 245.659554 77.854814 
L 278.001231 63.215257 
L 291.868829 60.423967 
L 301.113894 59.342624 
L 338.094155 58.821579 
L 347.33922 59.403571 
L 347.355271 58.931823 
L 370.451883 61.696742 
L 384.319481 63.652581 
L 384.335532 63.177928 
L 407.432144 67.885238 
L 416.677209 69.979076 
L 430.544807 73.509672 
L 439.789872 76.036462 
L 462.902535 82.936634 
L 509.127861 101.841832 
L 522.995459 109.853743 
L 546.108122 125.850752 
L 546.124172 125.601498 
L 555.353187 132.582485 
L 555.369238 132.357597 
L 569.220785 143.143905 
L 578.46585 150.0675 
L 578.481901 149.897596 
L 592.333448 159.28298 
L 615.446111 173.104381 
L 615.462161 172.98964 
L 624.691176 177.667147 
L 624.707227 177.560763 
L 647.803839 187.365582 
L 647.81989 187.275808 
L 670.916502 153.875506 
L 670.932553 153.669227 
" clip-path="url(#p8d43cc00f8)" style="fill: none; stroke: #dc2626; stroke-width: 2; stroke-linecap: square"/>
   </g>
   <g id="line2d_37">
    <path d="M 69.987264 222.453155 
L 106.967525 217.863371 
L 106.983576 217.844492 
L 116.21259 217.129492 
L 116.228641 217.108904 
L 130.080188 214.988979 
L 130.096239 214.96462 
L 139.325253 212.345946 
L 139.341304 212.319112 
L 153.192851 207.441759 
L 153.208902 207.407142 
L 162.437916 201.364269 
L 162.453967 201.318873 
L 176.305514 187.853497 
L 176.321565 187.786718 
L 185.550579 171.471014 
L 185.56663 171.356882 
L 231.775905 91.778019 
L 231.791956 91.504705 
L 245.643503 78.177287 
L 245.659554 77.854814 
L 278.001231 63.215257 
L 291.868829 60.423967 
L 301.113894 59.342624 
L 338.094155 58.821579 
L 347.33922 59.403571 
L 347.355271 58.931823 
L 370.451883 61.696742 
L 384.319481 63.652581 
L 384.335532 63.177928 
L 407.432144 67.885238 
L 416.677209 69.979076 
L 430.544807 73.509672 
L 439.789872 76.036462 
L 462.902535 82.936634 
L 509.127861 101.841832 
L 522.995459 109.853743 
L 546.108122 125.850752 
L 546.124172 125.601498 
L 555.353187 132.582485 
L 555.369238 132.357597 
L 569.220785 143.143905 
L 578.46585 150.0675 
L 578.481901 149.897596 
L 592.333448 159.28298 
L 615.446111 173.104381 
L 615.462161 172.98964 
L 624.691176 177.667147 
L 624.707227 177.560763 
L 647.803839 187.365582 
L 647.81989 187.275808 
L 670.916502 153.875506 
L 670.932553 153.669227 
" clip-path="url(#p8d43cc00f8)" style="fill: none; stroke: #0f766e; stroke-width: 2; stroke-linecap: square"/>
   </g>
   <g id="patch_3">
    <path d="M 39.94 230.634734 
L 39.94 50.64 
" style="fill: none; stroke: #000000; stroke-width: 0.8; stroke-linejoin: miter; stroke-linecap: square"/>
   </g>
   <g id="patch_4">
    <path d="M 700.979817 230.634734 
L 700.979817 50.64 
" style="fill: none; stroke: #000000; stroke-width: 0.8; stroke-linejoin: miter; stroke-linecap: square"/>
   </g>
   <g id="patch_5">
    <path d="M 39.94 230.634734 
L 700.979817 230.634734 
" style="fill: none; stroke: #000000; stroke-width: 0.8; stroke-linejoin: miter; stroke-linecap: square"/>
   </g>
   <g id="patch_6">
    <path d="M 39.94 50.64 
L 700.979817 50.64 
" style="fill: none; stroke: #000000; stroke-width: 0.8; stroke-linejoin: miter; stroke-linecap: square"/>
   </g>
   <g id="text_9">
    <!-- gammasdb -->
    <g transform="translate(336.864596 44.64) scale(0.12 -0.12)">
     <defs>
      <path id="DejaVuSans-67" d="M 2906 1791 
Q 2906 2416 2648 2759 
Q 2391 3103 1925 3103 
Q 1463 3103 1205 2759 
Q 947 2416 947 1791 
Q 947 1169 1205 825 
Q 1463 481 1925 481 
Q 2391 481 2648 825 
Q 2906 1169 2906 1791 
z
M 3481 434 
Q 3481 -459 3084 -895 
Q 2688 -1331 1869 -1331 
Q 1566 -1331 1297 -1286 
Q 1028 -1241 775 -1147 
L 775 -588 
Q 1028 -725 1275 -790 
Q 1522 -856 1778 -856 
Q 2344 -856 2625 -561 
Q 2906 -266 2906 331 
L 2906 616 
Q 2728 306 2450 153 
Q 2172 0 1784 0 
Q 1141 0 747 490 
Q 353 981 353 1791 
Q 353 2603 747 3093 
Q 1141 3584 1784 3584 
Q 2172 3584 2450 3431 
Q 2728 3278 2906 2969 
L 2906 3500 
L 3481 3500 
L 3481 434 
z
" transform="scale(0.015625)"/>
      <path id="DejaVuSans-61" d="M 2194 1759 
Q 1497 1759 1228 1600 
Q 959 1441 959 1056 
Q 959 750 1161 570 
Q 1363 391 1709 391 
Q 2188 391 2477 730 
Q 2766 1069 2766 1631 
L 2766 1759 
L 2194 1759 
z
M 3341 1997 
L 3341 0 
L 2766 0 
L 2766 531 
Q 2569 213 2275 61 
Q 1981 -91 1556 -91 
Q 1019 -91 701 211 
Q 384 513 384 1019 
Q 384 1609 779 1909 
Q 1175 2209 1959 2209 
L 2766 2209 
L 2766 2266 
Q 2766 2663 2505 2880 
Q 2244 3097 1772 3097 
Q 1472 3097 1187 3025 
Q 903 2953 641 2809 
L 641 3341 
Q 956 3463 1253 3523 
Q 1550 3584 1831 3584 
Q 2591 3584 2966 3190 
Q 3341 2797 3341 1997 
z
" transform="scale(0.015625)"/>
      <path id="DejaVuSans-6d" d="M 3328 2828 
Q 3544 3216 3844 3400 
Q 4144 3584 4550 3584 
Q 5097 3584 5394 3201 
Q 5691 2819 5691 2113 
L 5691 0 
L 5113 0 
L 5113 2094 
Q 5113 2597 4934 2840 
Q 4756 3084 4391 3084 
Q 3944 3084 3684 2787 
Q 3425 2491 3425 1978 
L 3425 0 
L 2847 0 
L 2847 2094 
Q 2847 2600 2669 2842 
Q 2491 3084 2119 3084 
Q 1678 3084 1418 2786 
Q 1159 2488 1159 1978 
L 1159 0 
L 581 0 
L 581 3500 
L 1159 3500 
L 1159 2956 
Q 1356 3278 1631 3431 
Q 1906 3584 2284 3584 
Q 2666 3584 2933 3390 
Q 3200 3197 3328 2828 
z
" transform="scale(0.015625)"/>
      <path id="DejaVuSans-73" d="M 2834 3397 
L 2834 2853 
Q 2591 2978 2328 3040 
Q 2066 3103 1784 3103 
Q 1356 3103 1142 2972 
Q 928 2841 928 2578 
Q 928 2378 1081 2264 
Q 1234 2150 1697 2047 
L 1894 2003 
Q 2506 1872 2764 1633 
Q 3022 1394 3022 966 
Q 3022 478 2636 193 
Q 2250 -91 1575 -91 
Q 1294 -91 989 -36 
Q 684 19 347 128 
L 347 722 
Q 666 556 975 473 
Q 1284 391 1588 391 
Q 1994 391 2212 530 
Q 2431 669 2431 922 
Q 2431 1156 2273 1281 
Q 2116 1406 1581 1522 
L 1381 1569 
Q 847 1681 609 1914 
Q 372 2147 372 2553 
Q 372 3047 722 3315 
Q 1072 3584 1716 3584 
Q 2034 3584 2315 3537 
Q 2597 3491 2834 3397 
z
" transform="scale(0.015625)"/>
      <path id="DejaVuSans-64" d="M 2906 2969 
L 2906 4863 
L 3481 4863 
L 3481 0 
L 2906 0 
L 2906 525 
Q 2725 213 2448 61 
Q 2172 -91 1784 -91 
Q 1150 -91 751 415 
Q 353 922 353 1747 
Q 353 2572 751 3078 
Q 1150 3584 1784 3584 
Q 2172 3584 2448 3432 
Q 2725 3281 2906 2969 
z
M 947 1747 
Q 947 1113 1208 752 
Q 1469 391 1925 391 
Q 2381 391 2643 752 
Q 2906 1113 2906 1747 
Q 2906 2381 2643 2742 
Q 2381 3103 1925 3103 
Q 1469 3103 1208 2742 
Q 947 2381 947 1747 
z
" transform="scale(0.015625)"/>
      <path id="DejaVuSans-62" d="M 3116 1747 
Q 3116 2381 2855 2742 
Q 2594 3103 2138 3103 
Q 1681 3103 1420 2742 
Q 1159 2381 1159 1747 
Q 1159 1113 1420 752 
Q 1681 391 2138 391 
Q 2594 391 2855 752 
Q 3116 1113 3116 1747 
z
M 1159 2969 
Q 1341 3281 1617 3432 
Q 1894 3584 2278 3584 
Q 2916 3584 3314 3078 
Q 3713 2572 3713 1747 
Q 3713 922 3314 415 
Q 2916 -91 2278 -91 
Q 1894 -91 1617 61 
Q 1341 213 1159 525 
L 1159 0 
L 581 0 
L 581 4863 
L 1159 4863 
L 1159 2969 
z
" transform="scale(0.015625)"/>
     </defs>
     <use xlink:href="#DejaVuSans-67"/>
     <use xlink:href="#DejaVuSans-61" transform="translate(63.476562 0)"/>
     <use xlink:href="#DejaVuSans-6d" transform="translate(124.755859 0)"/>
     <use xlink:href="#DejaVuSans-6d" transform="translate(222.167969 0)"/>
     <use xlink:href="#DejaVuSans-61" transform="translate(319.580078 0)"/>
     <use xlink:href="#DejaVuSans-73" transform="translate(380.859375 0)"/>
     <use xlink:href="#DejaVuSans-64" transform="translate(432.958984 0)"/>
     <use xlink:href="#DejaVuSans-62" transform="translate(496.435547 0)"/>
    </g>
   </g>
   <g id="legend_1">
    <g id="patch_7">
     <path d="M 598.336067 102.674375 
L 693.979817 102.674375 
Q 695.979817 102.674375 695.979817 100.674375 
L 695.979817 57.64 
Q 695.979817 55.64 693.979817 55.64 
L 598.336067 55.64 
Q 596.336067 55.64 596.336067 57.64 
L 596.336067 100.674375 
Q 596.336067 102.674375 598.336067 102.674375 
z
" style="fill: #ffffff; opacity: 0.8; stroke: #cccccc; stroke-linejoin: miter"/>
    </g>
    <g id="line2d_38">
     <path d="M 600.336067 63.738438 
L 610.336067 63.738438 
L 620.336067 63.738438 
" style="fill: none; stroke: #1d4ed8; stroke-width: 2; stroke-linecap: square"/>
    </g>
    <g id="text_10">
     <!-- reflectance -->
     <g transform="translate(628.336067 67.238438) scale(0.1 -0.1)">
      <defs>
       <path id="DejaVuSans-72" d="M 2631 2963 
Q 2534 3019 2420 3045 
Q 2306 3072 2169 3072 
Q 1681 3072 1420 2755 
Q 1159 2438 1159 1844 
L 1159 0 
L 581 0 
L 581 3500 
L 1159 3500 
L 1159 2956 
Q 1341 3275 1631 3429 
Q 1922 3584 2338 3584 
Q 2397 3584 2469 3576 
Q 2541 3569 2628 3553 
L 2631 2963 
z
" transform="scale(0.015625)"/>
       <path id="DejaVuSans-65" d="M 3597 1894 
L 3597 1613 
L 953 1613 
Q 991 1019 1311 708 
Q 1631 397 2203 397 
Q 2534 397 2845 478 
Q 3156 559 3463 722 
L 3463 178 
Q 3153 47 2828 -22 
Q 2503 -91 2169 -91 
Q 1331 -91 842 396 
Q 353 884 353 1716 
Q 353 2575 817 3079 
Q 1281 3584 2069 3584 
Q 2775 3584 3186 3129 
Q 3597 2675 3597 1894 
z
M 3022 2063 
Q 3016 2534 2758 2815 
Q 2500 3097 2075 3097 
Q 1594 3097 1305 2825 
Q 1016 2553 972 2059 
L 3022 2063 
z
" transform="scale(0.015625)"/>
       <path id="DejaVuSans-66" d="M 2375 4863 
L 2375 4384 
L 1825 4384 
Q 1516 4384 1395 4259 
Q 1275 4134 1275 3809 
L 1275 3500 
L 2222 3500 
L 2222 3053 
L 1275 3053 
L 1275 0 
L 697 0 
L 697 3053 
L 147 3053 
L 147 3500 
L 697 3500 
L 697 3744 
Q 697 4328 969 4595 
Q 1241 4863 1831 4863 
L 2375 4863 
z
" transform="scale(0.015625)"/>
       <path id="DejaVuSans-6c" d="M 603 4863 
L 1178 4863 
L 1178 0 
L 603 0 
L 603 4863 
z
" transform="scale(0.015625)"/>
       <path id="DejaVuSans-63" d="M 3122 3366 
L 3122 2828 
Q 2878 2963 2633 3030 
Q 2388 3097 2138 3097 
Q 1578 3097 1268 2742 
Q 959 2388 959 1747 
Q 959 1106 1268 751 
Q 1578 397 2138 397 
Q 2388 397 2633 464 
Q 2878 531 3122 666 
L 3122 134 
Q 2881 22 2623 -34 
Q 2366 -91 2075 -91 
Q 1284 -91 818 406 
Q 353 903 353 1747 
Q 353 2603 823 3093 
Q 1294 3584 2113 3584 
Q 2378 3584 2631 3529 
Q 2884 3475 3122 3366 
z
" transform="scale(0.015625)"/>
       <path id="DejaVuSans-74" d="M 1172 4494 
L 1172 3500 
L 2356 3500 
L 2356 3053 
L 1172 3053 
L 1172 1153 
Q 1172 725 1289 603 
Q 1406 481 1766 481 
L 2356 481 
L 2356 0 
L 1766 0 
Q 1100 0 847 248 
Q 594 497 594 1153 
L 594 3053 
L 172 3053 
L 172 3500 
L 594 3500 
L 594 4494 
L 1172 4494 
z
" transform="scale(0.015625)"/>
       <path id="DejaVuSans-6e" d="M 3513 2113 
L 3513 0 
L 2938 0 
L 2938 2094 
Q 2938 2591 2744 2837 
Q 2550 3084 2163 3084 
Q 1697 3084 1428 2787 
Q 1159 2491 1159 1978 
L 1159 0 
L 581 0 
L 581 3500 
L 1159 3500 
L 1159 2956 
Q 1366 3272 1645 3428 
Q 1925 3584 2291 3584 
Q 2894 3584 3203 3211 
Q 3513 2838 3513 2113 
z
" transform="scale(0.015625)"/>
      </defs>
      <use xlink:href="#DejaVuSans-72"/>
      <use xlink:href="#DejaVuSans-65" transform="translate(38.863281 0)"/>
      <use xlink:href="#DejaVuSans-66" transform="translate(100.386719 0)"/>
      <use xlink:href="#DejaVuSans-6c" transform="translate(135.591797 0)"/>
      <use xlink:href="#DejaVuSans-65" transform="translate(163.375 0)"/>
      <use xlink:href="#DejaVuSans-63" transform="translate(224.898438 0)"/>
      <use xlink:href="#DejaVuSans-74" transform="translate(279.878906 0)"/>
      <use xlink:href="#DejaVuSans-61" transform="translate(319.087891 0)"/>
      <use xlink:href="#DejaVuSans-6e" transform="translate(380.367188 0)"/>
      <use xlink:href="#DejaVuSans-63" transform="translate(443.746094 0)"/>
      <use xlink:href="#DejaVuSans-65" transform="translate(498.726562 0)"/>
     </g>
    </g>
    <g id="line2d_39">
     <path d="M 600.336067 78.416563 
L 610.336067 78.416563 
L 620.336067 78.416563 
" style="fill: none; stroke: #dc2626; stroke-width: 2; stroke-linecap: square"/>
    </g>
    <g id="text_11">
     <!-- fluorescence -->
     <g transform="translate(628.336067 81.916563) scale(0.1 -0.1)">
      <defs>
       <path id="DejaVuSans-75" d="M 544 1381 
L 544 3500 
L 1119 3500 
L 1119 1403 
Q 1119 906 1312 657 
Q 1506 409 1894 409 
Q 2359 409 2629 706 
Q 2900 1003 2900 1516 
L 2900 3500 
L 3475 3500 
L 3475 0 
L 2900 0 
L 2900 538 
Q 2691 219 2414 64 
Q 2138 -91 1772 -91 
Q 1169 -91 856 284 
Q 544 659 544 1381 
z
M 1991 3584 
L 1991 3584 
z
" transform="scale(0.015625)"/>
       <path id="DejaVuSans-6f" d="M 1959 3097 
Q 1497 3097 1228 2736 
Q 959 2375 959 1747 
Q 959 1119 1226 758 
Q 1494 397 1959 397 
Q 2419 397 2687 759 
Q 2956 1122 2956 1747 
Q 2956 2369 2687 2733 
Q 2419 3097 1959 3097 
z
M 1959 3584 
Q 2709 3584 3137 3096 
Q 3566 2609 3566 1747 
Q 3566 888 3137 398 
Q 2709 -91 1959 -91 
Q 1206 -91 779 398 
Q 353 888 353 1747 
Q 353 2609 779 3096 
Q 1206 3584 1959 3584 
z
" transform="scale(0.015625)"/>
      </defs>
      <use xlink:href="#DejaVuSans-66"/>
      <use xlink:href="#DejaVuSans-6c" transform="translate(35.205078 0)"/>
      <use xlink:href="#DejaVuSans-75" transform="translate(62.988281 0)"/>
      <use xlink:href="#DejaVuSans-6f" transform="translate(126.367188 0)"/>
      <use xlink:href="#DejaVuSans-72" transform="translate(187.548828 0)"/>
      <use xlink:href="#DejaVuSans-65" transform="translate(226.412109 0)"/>
      <use xlink:href="#DejaVuSans-73" transform="translate(287.935547 0)"/>
      <use xlink:href="#DejaVuSans-63" transform="translate(340.035156 0)"/>
      <use xlink:href="#DejaVuSans-65" transform="translate(395.015625 0)"/>
      <use xlink:href="#DejaVuSans-6e" transform="translate(456.539062 0)"/>
      <use xlink:href="#DejaVuSans-63" transform="translate(519.917969 0)"/>
      <use xlink:href="#DejaVuSans-65" transform="translate(574.898438 0)"/>
     </g>
    </g>
    <g id="line2d_40">
     <path d="M 600.336067 93.094688 
L 610.336067 93.094688 
L 620.336067 93.094688 
" style="fill: none; stroke: #0f766e; stroke-width: 2; stroke-linecap: square"/>
    </g>
    <g id="text_12">
     <!-- thermal -->
     <g transform="translate(628.336067 96.594688) scale(0.1 -0.1)">
      <defs>
       <path id="DejaVuSans-68" d="M 3513 2113 
L 3513 0 
L 2938 0 
L 2938 2094 
Q 2938 2591 2744 2837 
Q 2550 3084 2163 3084 
Q 1697 3084 1428 2787 
Q 1159 2491 1159 1978 
L 1159 0 
L 581 0 
L 581 4863 
L 1159 4863 
L 1159 2956 
Q 1366 3272 1645 3428 
Q 1925 3584 2291 3584 
Q 2894 3584 3203 3211 
Q 3513 2838 3513 2113 
z
" transform="scale(0.015625)"/>
      </defs>
      <use xlink:href="#DejaVuSans-74"/>
      <use xlink:href="#DejaVuSans-68" transform="translate(39.208984 0)"/>
      <use xlink:href="#DejaVuSans-65" transform="translate(102.587891 0)"/>
      <use xlink:href="#DejaVuSans-72" transform="translate(164.111328 0)"/>
      <use xlink:href="#DejaVuSans-6d" transform="translate(203.474609 0)"/>
      <use xlink:href="#DejaVuSans-61" transform="translate(300.886719 0)"/>
      <use xlink:href="#DejaVuSans-6c" transform="translate(362.166016 0)"/>
     </g>
    </g>
   </g>
  </g>
  <g id="axes_2">
   <g id="patch_8">
    <path d="M 39.94 442.498311 
L 700.979817 442.498311 
L 700.979817 262.503577 
L 39.94 262.503577 
z
" style="fill: #ffffff"/>
   </g>
   <g id="matplotlib.axis_3">
    <g id="xtick_10">
     <g id="line2d_41">
      <path d="M 114.190232 442.498311 
L 114.190232 262.503577 
" clip-path="url(#p4f55d6a3eb)" style="fill: none; stroke: #b0b0b0; stroke-opacity: 0.25; stroke-width: 0.8; stroke-linecap: square"/>
     </g>
     <g id="line2d_42">
      <g>
       <use xlink:href="#m7cf79d54dd" x="114.190232" y="442.498311" style="stroke: #000000; stroke-width: 0.8"/>
      </g>
     </g>
    </g>
    <g id="xtick_11">
     <g id="line2d_43">
      <path d="M 178.905689 442.498311 
L 178.905689 262.503577 
" clip-path="url(#p4f55d6a3eb)" style="fill: none; stroke: #b0b0b0; stroke-opacity: 0.25; stroke-width: 0.8; stroke-linecap: square"/>
     </g>
     <g id="line2d_44">
      <g>
       <use xlink:href="#m7cf79d54dd" x="178.905689" y="442.498311" style="stroke: #000000; stroke-width: 0.8"/>
      </g>
     </g>
    </g>
    <g id="xtick_12">
     <g id="line2d_45">
      <path d="M 252.86621 442.498311 
L 252.86621 262.503577 
" clip-path="url(#p4f55d6a3eb)" style="fill: none; stroke: #b0b0b0; stroke-opacity: 0.25; stroke-width: 0.8; stroke-linecap: square"/>
     </g>
     <g id="line2d_46">
      <g>
       <use xlink:href="#m7cf79d54dd" x="252.86621" y="442.498311" style="stroke: #000000; stroke-width: 0.8"/>
      </g>
     </g>
    </g>
    <g id="xtick_13">
     <g id="line2d_47">
      <path d="M 317.581667 442.498311 
L 317.581667 262.503577 
" clip-path="url(#p4f55d6a3eb)" style="fill: none; stroke: #b0b0b0; stroke-opacity: 0.25; stroke-width: 0.8; stroke-linecap: square"/>
     </g>
     <g id="line2d_48">
      <g>
       <use xlink:href="#m7cf79d54dd" x="317.581667" y="442.498311" style="stroke: #000000; stroke-width: 0.8"/>
      </g>
     </g>
    </g>
    <g id="xtick_14">
     <g id="line2d_49">
      <path d="M 396.164721 442.498311 
L 396.164721 262.503577 
" clip-path="url(#p4f55d6a3eb)" style="fill: none; stroke: #b0b0b0; stroke-opacity: 0.25; stroke-width: 0.8; stroke-linecap: square"/>
     </g>
     <g id="line2d_50">
      <g>
       <use xlink:href="#m7cf79d54dd" x="396.164721" y="442.498311" style="stroke: #000000; stroke-width: 0.8"/>
      </g>
     </g>
    </g>
    <g id="xtick_15">
     <g id="line2d_51">
      <path d="M 460.880177 442.498311 
L 460.880177 262.503577 
" clip-path="url(#p4f55d6a3eb)" style="fill: none; stroke: #b0b0b0; stroke-opacity: 0.25; stroke-width: 0.8; stroke-linecap: square"/>
     </g>
     <g id="line2d_52">
      <g>
       <use xlink:href="#m7cf79d54dd" x="460.880177" y="442.498311" style="stroke: #000000; stroke-width: 0.8"/>
      </g>
     </g>
    </g>
    <g id="xtick_16">
     <g id="line2d_53">
      <path d="M 539.463231 442.498311 
L 539.463231 262.503577 
" clip-path="url(#p4f55d6a3eb)" style="fill: none; stroke: #b0b0b0; stroke-opacity: 0.25; stroke-width: 0.8; stroke-linecap: square"/>
     </g>
     <g id="line2d_54">
      <g>
       <use xlink:href="#m7cf79d54dd" x="539.463231" y="442.498311" style="stroke: #000000; stroke-width: 0.8"/>
      </g>
     </g>
    </g>
    <g id="xtick_17">
     <g id="line2d_55">
      <path d="M 604.178688 442.498311 
L 604.178688 262.503577 
" clip-path="url(#p4f55d6a3eb)" style="fill: none; stroke: #b0b0b0; stroke-opacity: 0.25; stroke-width: 0.8; stroke-linecap: square"/>
     </g>
     <g id="line2d_56">
      <g>
       <use xlink:href="#m7cf79d54dd" x="604.178688" y="442.498311" style="stroke: #000000; stroke-width: 0.8"/>
      </g>
     </g>
    </g>
    <g id="xtick_18">
     <g id="line2d_57">
      <path d="M 678.139209 442.498311 
L 678.139209 262.503577 
" clip-path="url(#p4f55d6a3eb)" style="fill: none; stroke: #b0b0b0; stroke-opacity: 0.25; stroke-width: 0.8; stroke-linecap: square"/>
     </g>
     <g id="line2d_58">
      <g>
       <use xlink:href="#m7cf79d54dd" x="678.139209" y="442.498311" style="stroke: #000000; stroke-width: 0.8"/>
      </g>
     </g>
    </g>
   </g>
   <g id="matplotlib.axis_4">
    <g id="ytick_9">
     <g id="line2d_59">
      <path d="M 39.94 403.806617 
L 700.979817 403.806617 
" clip-path="url(#p4f55d6a3eb)" style="fill: none; stroke: #b0b0b0; stroke-opacity: 0.25; stroke-width: 0.8; stroke-linecap: square"/>
     </g>
     <g id="line2d_60">
      <g>
       <use xlink:href="#m83ff238738" x="39.94" y="403.806617" style="stroke: #000000; stroke-width: 0.8"/>
      </g>
     </g>
     <g id="text_13">
      <!-- 0.3 -->
      <g transform="translate(17.036875 407.605836) scale(0.1 -0.1)">
       <use xlink:href="#DejaVuSans-30"/>
       <use xlink:href="#DejaVuSans-2e" transform="translate(63.623047 0)"/>
       <use xlink:href="#DejaVuSans-33" transform="translate(95.410156 0)"/>
      </g>
     </g>
    </g>
    <g id="ytick_10">
     <g id="line2d_61">
      <path d="M 39.94 361.466088 
L 700.979817 361.466088 
" clip-path="url(#p4f55d6a3eb)" style="fill: none; stroke: #b0b0b0; stroke-opacity: 0.25; stroke-width: 0.8; stroke-linecap: square"/>
     </g>
     <g id="line2d_62">
      <g>
       <use xlink:href="#m83ff238738" x="39.94" y="361.466088" style="stroke: #000000; stroke-width: 0.8"/>
      </g>
     </g>
     <g id="text_14">
      <!-- 0.4 -->
      <g transform="translate(17.036875 365.265307) scale(0.1 -0.1)">
       <use xlink:href="#DejaVuSans-30"/>
       <use xlink:href="#DejaVuSans-2e" transform="translate(63.623047 0)"/>
       <use xlink:href="#DejaVuSans-34" transform="translate(95.410156 0)"/>
      </g>
     </g>
    </g>
    <g id="ytick_11">
     <g id="line2d_63">
      <path d="M 39.94 319.125559 
L 700.979817 319.125559 
" clip-path="url(#p4f55d6a3eb)" style="fill: none; stroke: #b0b0b0; stroke-opacity: 0.25; stroke-width: 0.8; stroke-linecap: square"/>
     </g>
     <g id="line2d_64">
      <g>
       <use xlink:href="#m83ff238738" x="39.94" y="319.125559" style="stroke: #000000; stroke-width: 0.8"/>
      </g>
     </g>
     <g id="text_15">
      <!-- 0.5 -->
      <g transform="translate(17.036875 322.924778) scale(0.1 -0.1)">
       <use xlink:href="#DejaVuSans-30"/>
       <use xlink:href="#DejaVuSans-2e" transform="translate(63.623047 0)"/>
       <use xlink:href="#DejaVuSans-35" transform="translate(95.410156 0)"/>
      </g>
     </g>
    </g>
    <g id="ytick_12">
     <g id="line2d_65">
      <path d="M 39.94 276.78503 
L 700.979817 276.78503 
" clip-path="url(#p4f55d6a3eb)" style="fill: none; stroke: #b0b0b0; stroke-opacity: 0.25; stroke-width: 0.8; stroke-linecap: square"/>
     </g>
     <g id="line2d_66">
      <g>
       <use xlink:href="#m83ff238738" x="39.94" y="276.78503" style="stroke: #000000; stroke-width: 0.8"/>
      </g>
     </g>
     <g id="text_16">
      <!-- 0.6 -->
      <g transform="translate(17.036875 280.584249) scale(0.1 -0.1)">
       <use xlink:href="#DejaVuSans-30"/>
       <use xlink:href="#DejaVuSans-2e" transform="translate(63.623047 0)"/>
       <use xlink:href="#DejaVuSans-36" transform="translate(95.410156 0)"/>
      </g>
     </g>
    </g>
   </g>
   <g id="line2d_67">
    <path d="M 69.987264 434.316732 
L 106.967525 426.137641 
L 106.983576 426.100133 
L 116.21259 424.827227 
L 116.228641 424.786936 
L 130.080188 421.025739 
L 130.096239 420.978344 
L 139.325253 416.351886 
L 139.341304 416.299507 
L 153.192851 407.711344 
L 153.208902 407.64347 
L 162.437916 397.10525 
L 162.453967 397.017199 
L 176.305514 373.975447 
L 176.321565 373.84573 
L 185.550579 347.018415 
L 185.56663 346.801428 
L 231.775905 271.287283 
L 231.791956 270.685155 
L 245.643503 288.396478 
L 245.659554 287.674979 
L 278.001231 345.440703 
L 291.868829 364.374969 
L 301.113894 373.892304 
L 338.094155 398.053616 
L 347.33922 400.71177 
L 347.355271 399.893324 
L 370.451883 403.228485 
L 384.319481 400.804478 
L 384.335532 399.970676 
L 407.432144 389.333793 
L 416.677209 381.932031 
L 430.544807 369.376725 
L 439.789872 360.584472 
L 462.902535 341.186945 
L 509.127861 310.05334 
L 522.995459 304.211725 
L 546.108122 304.089856 
L 546.124172 303.490983 
L 555.353187 307.676249 
L 555.369238 307.140621 
L 569.220785 316.314141 
L 578.46585 323.577214 
L 578.481901 323.184477 
L 592.333448 334.739226 
L 615.446111 353.836283 
L 615.462161 353.583194 
L 624.691176 360.672284 
L 624.707227 360.440281 
L 647.803839 375.814601 
L 647.81989 375.623153 
L 670.916502 330.660864 
L 670.932553 330.206436 
" clip-path="url(#p4f55d6a3eb)" style="fill: none; stroke: #1d4ed8; stroke-width: 2; stroke-linecap: square"/>
   </g>
   <g id="line2d_68">
    <path d="M 69.987264 434.316732 
L 106.967525 426.137641 
L 106.983576 426.100133 
L 116.21259 424.827227 
L 116.228641 424.786936 
L 130.080188 421.025739 
L 130.096239 420.978344 
L 139.325253 416.351886 
L 139.341304 416.299507 
L 153.192851 407.711344 
L 153.208902 407.64347 
L 162.437916 397.10525 
L 162.453967 397.017199 
L 176.305514 373.975447 
L 176.321565 373.84573 
L 185.550579 347.018415 
L 185.56663 346.801428 
L 231.775905 271.287283 
L 231.791956 270.685155 
L 245.643503 288.396478 
L 245.659554 287.674979 
L 278.001231 345.440703 
L 291.868829 364.374969 
L 301.113894 373.892304 
L 338.094155 398.053616 
L 347.33922 400.71177 
L 347.355271 399.893324 
L 370.451883 403.228485 
L 384.319481 400.804478 
L 384.335532 399.970676 
L 407.432144 389.333793 
L 416.677209 381.932031 
L 430.544807 369.376725 
L 439.789872 360.584472 
L 462.902535 341.186945 
L 509.127861 310.05334 
L 522.995459 304.211725 
L 546.108122 304.089856 
L 546.124172 303.490983 
L 555.353187 307.676249 
L 555.369238 307.140621 
L 569.220785 316.314141 
L 578.46585 323.577214 
L 578.481901 323.184477 
L 592.333448 334.739226 
L 615.446111 353.836283 
L 615.462161 353.583194 
L 624.691176 360.672284 
L 624.707227 360.440281 
L 647.803839 375.814601 
L 647.81989 375.623153 
L 670.916502 330.660864 
L 670.932553 330.206436 
" clip-path="url(#p4f55d6a3eb)" style="fill: none; stroke: #dc2626; stroke-width: 2; stroke-linecap: square"/>
   </g>
   <g id="line2d_69">
    <path d="M 69.987264 434.316732 
L 106.967525 426.137641 
L 106.983576 426.100133 
L 116.21259 424.827227 
L 116.228641 424.786936 
L 130.080188 421.025739 
L 130.096239 420.978344 
L 139.325253 416.351886 
L 139.341304 416.299507 
L 153.192851 407.711344 
L 153.208902 407.64347 
L 162.437916 397.10525 
L 162.453967 397.017199 
L 176.305514 373.975447 
L 176.321565 373.84573 
L 185.550579 347.018415 
L 185.56663 346.801428 
L 231.775905 271.287283 
L 231.791956 270.685155 
L 245.643503 288.396478 
L 245.659554 287.674979 
L 278.001231 345.440703 
L 291.868829 364.374969 
L 301.113894 373.892304 
L 338.094155 398.053616 
L 347.33922 400.71177 
L 347.355271 399.893324 
L 370.451883 403.228485 
L 384.319481 400.804478 
L 384.335532 399.970676 
L 407.432144 389.333793 
L 416.677209 381.932031 
L 430.544807 369.376725 
L 439.789872 360.584472 
L 462.902535 341.186945 
L 509.127861 310.05334 
L 522.995459 304.211725 
L 546.108122 304.089856 
L 546.124172 303.490983 
L 555.353187 307.676249 
L 555.369238 307.140621 
L 569.220785 316.314141 
L 578.46585 323.577214 
L 578.481901 323.184477 
L 592.333448 334.739226 
L 615.446111 353.836283 
L 615.462161 353.583194 
L 624.691176 360.672284 
L 624.707227 360.440281 
L 647.803839 375.814601 
L 647.81989 375.623153 
L 670.916502 330.660864 
L 670.932553 330.206436 
" clip-path="url(#p4f55d6a3eb)" style="fill: none; stroke: #0f766e; stroke-width: 2; stroke-linecap: square"/>
   </g>
   <g id="patch_9">
    <path d="M 39.94 442.498311 
L 39.94 262.503577 
" style="fill: none; stroke: #000000; stroke-width: 0.8; stroke-linejoin: miter; stroke-linecap: square"/>
   </g>
   <g id="patch_10">
    <path d="M 700.979817 442.498311 
L 700.979817 262.503577 
" style="fill: none; stroke: #000000; stroke-width: 0.8; stroke-linejoin: miter; stroke-linecap: square"/>
   </g>
   <g id="patch_11">
    <path d="M 39.94 442.498311 
L 700.979817 442.498311 
" style="fill: none; stroke: #000000; stroke-width: 0.8; stroke-linejoin: miter; stroke-linecap: square"/>
   </g>
   <g id="patch_12">
    <path d="M 39.94 262.503577 
L 700.979817 262.503577 
" style="fill: none; stroke: #000000; stroke-width: 0.8; stroke-linejoin: miter; stroke-linecap: square"/>
   </g>
   <g id="text_17">
    <!-- gammasdf -->
    <g transform="translate(338.561471 256.503577) scale(0.12 -0.12)">
     <use xlink:href="#DejaVuSans-67"/>
     <use xlink:href="#DejaVuSans-61" transform="translate(63.476562 0)"/>
     <use xlink:href="#DejaVuSans-6d" transform="translate(124.755859 0)"/>
     <use xlink:href="#DejaVuSans-6d" transform="translate(222.167969 0)"/>
     <use xlink:href="#DejaVuSans-61" transform="translate(319.580078 0)"/>
     <use xlink:href="#DejaVuSans-73" transform="translate(380.859375 0)"/>
     <use xlink:href="#DejaVuSans-64" transform="translate(432.958984 0)"/>
     <use xlink:href="#DejaVuSans-66" transform="translate(496.435547 0)"/>
    </g>
   </g>
   <g id="legend_2">
    <g id="patch_13">
     <path d="M 598.336067 314.537952 
L 693.979817 314.537952 
Q 695.979817 314.537952 695.979817 312.537952 
L 695.979817 269.503577 
Q 695.979817 267.503577 693.979817 267.503577 
L 598.336067 267.503577 
Q 596.336067 267.503577 596.336067 269.503577 
L 596.336067 312.537952 
Q 596.336067 314.537952 598.336067 314.537952 
z
" style="fill: #ffffff; opacity: 0.8; stroke: #cccccc; stroke-linejoin: miter"/>
    </g>
    <g id="line2d_70">
     <path d="M 600.336067 275.602014 
L 610.336067 275.602014 
L 620.336067 275.602014 
" style="fill: none; stroke: #1d4ed8; stroke-width: 2; stroke-linecap: square"/>
    </g>
    <g id="text_18">
     <!-- reflectance -->
     <g transform="translate(628.336067 279.102014) scale(0.1 -0.1)">
      <use xlink:href="#DejaVuSans-72"/>
      <use xlink:href="#DejaVuSans-65" transform="translate(38.863281 0)"/>
      <use xlink:href="#DejaVuSans-66" transform="translate(100.386719 0)"/>
      <use xlink:href="#DejaVuSans-6c" transform="translate(135.591797 0)"/>
      <use xlink:href="#DejaVuSans-65" transform="translate(163.375 0)"/>
      <use xlink:href="#DejaVuSans-63" transform="translate(224.898438 0)"/>
      <use xlink:href="#DejaVuSans-74" transform="translate(279.878906 0)"/>
      <use xlink:href="#DejaVuSans-61" transform="translate(319.087891 0)"/>
      <use xlink:href="#DejaVuSans-6e" transform="translate(380.367188 0)"/>
      <use xlink:href="#DejaVuSans-63" transform="translate(443.746094 0)"/>
      <use xlink:href="#DejaVuSans-65" transform="translate(498.726562 0)"/>
     </g>
    </g>
    <g id="line2d_71">
     <path d="M 600.336067 290.280139 
L 610.336067 290.280139 
L 620.336067 290.280139 
" style="fill: none; stroke: #dc2626; stroke-width: 2; stroke-linecap: square"/>
    </g>
    <g id="text_19">
     <!-- fluorescence -->
     <g transform="translate(628.336067 293.780139) scale(0.1 -0.1)">
      <use xlink:href="#DejaVuSans-66"/>
      <use xlink:href="#DejaVuSans-6c" transform="translate(35.205078 0)"/>
      <use xlink:href="#DejaVuSans-75" transform="translate(62.988281 0)"/>
      <use xlink:href="#DejaVuSans-6f" transform="translate(126.367188 0)"/>
      <use xlink:href="#DejaVuSans-72" transform="translate(187.548828 0)"/>
      <use xlink:href="#DejaVuSans-65" transform="translate(226.412109 0)"/>
      <use xlink:href="#DejaVuSans-73" transform="translate(287.935547 0)"/>
      <use xlink:href="#DejaVuSans-63" transform="translate(340.035156 0)"/>
      <use xlink:href="#DejaVuSans-65" transform="translate(395.015625 0)"/>
      <use xlink:href="#DejaVuSans-6e" transform="translate(456.539062 0)"/>
      <use xlink:href="#DejaVuSans-63" transform="translate(519.917969 0)"/>
      <use xlink:href="#DejaVuSans-65" transform="translate(574.898438 0)"/>
     </g>
    </g>
    <g id="line2d_72">
     <path d="M 600.336067 304.958264 
L 610.336067 304.958264 
L 620.336067 304.958264 
" style="fill: none; stroke: #0f766e; stroke-width: 2; stroke-linecap: square"/>
    </g>
    <g id="text_20">
     <!-- thermal -->
     <g transform="translate(628.336067 308.458264) scale(0.1 -0.1)">
      <use xlink:href="#DejaVuSans-74"/>
      <use xlink:href="#DejaVuSans-68" transform="translate(39.208984 0)"/>
      <use xlink:href="#DejaVuSans-65" transform="translate(102.587891 0)"/>
      <use xlink:href="#DejaVuSans-72" transform="translate(164.111328 0)"/>
      <use xlink:href="#DejaVuSans-6d" transform="translate(203.474609 0)"/>
      <use xlink:href="#DejaVuSans-61" transform="translate(300.886719 0)"/>
      <use xlink:href="#DejaVuSans-6c" transform="translate(362.166016 0)"/>
     </g>
    </g>
   </g>
  </g>
  <g id="axes_3">
   <g id="patch_14">
    <path d="M 39.94 654.361887 
L 700.979817 654.361887 
L 700.979817 474.367153 
L 39.94 474.367153 
z
" style="fill: #ffffff"/>
   </g>
   <g id="matplotlib.axis_5">
    <g id="xtick_19">
     <g id="line2d_73">
      <path d="M 114.190232 654.361887 
L 114.190232 474.367153 
" clip-path="url(#pa760a50fa4)" style="fill: none; stroke: #b0b0b0; stroke-opacity: 0.25; stroke-width: 0.8; stroke-linecap: square"/>
     </g>
     <g id="line2d_74">
      <g>
       <use xlink:href="#m7cf79d54dd" x="114.190232" y="654.361887" style="stroke: #000000; stroke-width: 0.8"/>
      </g>
     </g>
    </g>
    <g id="xtick_20">
     <g id="line2d_75">
      <path d="M 178.905689 654.361887 
L 178.905689 474.367153 
" clip-path="url(#pa760a50fa4)" style="fill: none; stroke: #b0b0b0; stroke-opacity: 0.25; stroke-width: 0.8; stroke-linecap: square"/>
     </g>
     <g id="line2d_76">
      <g>
       <use xlink:href="#m7cf79d54dd" x="178.905689" y="654.361887" style="stroke: #000000; stroke-width: 0.8"/>
      </g>
     </g>
    </g>
    <g id="xtick_21">
     <g id="line2d_77">
      <path d="M 252.86621 654.361887 
L 252.86621 474.367153 
" clip-path="url(#pa760a50fa4)" style="fill: none; stroke: #b0b0b0; stroke-opacity: 0.25; stroke-width: 0.8; stroke-linecap: square"/>
     </g>
     <g id="line2d_78">
      <g>
       <use xlink:href="#m7cf79d54dd" x="252.86621" y="654.361887" style="stroke: #000000; stroke-width: 0.8"/>
      </g>
     </g>
    </g>
    <g id="xtick_22">
     <g id="line2d_79">
      <path d="M 317.581667 654.361887 
L 317.581667 474.367153 
" clip-path="url(#pa760a50fa4)" style="fill: none; stroke: #b0b0b0; stroke-opacity: 0.25; stroke-width: 0.8; stroke-linecap: square"/>
     </g>
     <g id="line2d_80">
      <g>
       <use xlink:href="#m7cf79d54dd" x="317.581667" y="654.361887" style="stroke: #000000; stroke-width: 0.8"/>
      </g>
     </g>
    </g>
    <g id="xtick_23">
     <g id="line2d_81">
      <path d="M 396.164721 654.361887 
L 396.164721 474.367153 
" clip-path="url(#pa760a50fa4)" style="fill: none; stroke: #b0b0b0; stroke-opacity: 0.25; stroke-width: 0.8; stroke-linecap: square"/>
     </g>
     <g id="line2d_82">
      <g>
       <use xlink:href="#m7cf79d54dd" x="396.164721" y="654.361887" style="stroke: #000000; stroke-width: 0.8"/>
      </g>
     </g>
    </g>
    <g id="xtick_24">
     <g id="line2d_83">
      <path d="M 460.880177 654.361887 
L 460.880177 474.367153 
" clip-path="url(#pa760a50fa4)" style="fill: none; stroke: #b0b0b0; stroke-opacity: 0.25; stroke-width: 0.8; stroke-linecap: square"/>
     </g>
     <g id="line2d_84">
      <g>
       <use xlink:href="#m7cf79d54dd" x="460.880177" y="654.361887" style="stroke: #000000; stroke-width: 0.8"/>
      </g>
     </g>
    </g>
    <g id="xtick_25">
     <g id="line2d_85">
      <path d="M 539.463231 654.361887 
L 539.463231 474.367153 
" clip-path="url(#pa760a50fa4)" style="fill: none; stroke: #b0b0b0; stroke-opacity: 0.25; stroke-width: 0.8; stroke-linecap: square"/>
     </g>
     <g id="line2d_86">
      <g>
       <use xlink:href="#m7cf79d54dd" x="539.463231" y="654.361887" style="stroke: #000000; stroke-width: 0.8"/>
      </g>
     </g>
    </g>
    <g id="xtick_26">
     <g id="line2d_87">
      <path d="M 604.178688 654.361887 
L 604.178688 474.367153 
" clip-path="url(#pa760a50fa4)" style="fill: none; stroke: #b0b0b0; stroke-opacity: 0.25; stroke-width: 0.8; stroke-linecap: square"/>
     </g>
     <g id="line2d_88">
      <g>
       <use xlink:href="#m7cf79d54dd" x="604.178688" y="654.361887" style="stroke: #000000; stroke-width: 0.8"/>
      </g>
     </g>
    </g>
    <g id="xtick_27">
     <g id="line2d_89">
      <path d="M 678.139209 654.361887 
L 678.139209 474.367153 
" clip-path="url(#pa760a50fa4)" style="fill: none; stroke: #b0b0b0; stroke-opacity: 0.25; stroke-width: 0.8; stroke-linecap: square"/>
     </g>
     <g id="line2d_90">
      <g>
       <use xlink:href="#m7cf79d54dd" x="678.139209" y="654.361887" style="stroke: #000000; stroke-width: 0.8"/>
      </g>
     </g>
    </g>
   </g>
   <g id="matplotlib.axis_6">
    <g id="ytick_13">
     <g id="line2d_91">
      <path d="M 39.94 630.399516 
L 700.979817 630.399516 
" clip-path="url(#pa760a50fa4)" style="fill: none; stroke: #b0b0b0; stroke-opacity: 0.25; stroke-width: 0.8; stroke-linecap: square"/>
     </g>
     <g id="line2d_92">
      <g>
       <use xlink:href="#m83ff238738" x="39.94" y="630.399516" style="stroke: #000000; stroke-width: 0.8"/>
      </g>
     </g>
     <g id="text_21">
      <!-- 0.2 -->
      <g transform="translate(17.036875 634.198735) scale(0.1 -0.1)">
       <use xlink:href="#DejaVuSans-30"/>
       <use xlink:href="#DejaVuSans-2e" transform="translate(63.623047 0)"/>
       <use xlink:href="#DejaVuSans-32" transform="translate(95.410156 0)"/>
      </g>
     </g>
    </g>
    <g id="ytick_14">
     <g id="line2d_93">
      <path d="M 39.94 585.681018 
L 700.979817 585.681018 
" clip-path="url(#pa760a50fa4)" style="fill: none; stroke: #b0b0b0; stroke-opacity: 0.25; stroke-width: 0.8; stroke-linecap: square"/>
     </g>
     <g id="line2d_94">
      <g>
       <use xlink:href="#m83ff238738" x="39.94" y="585.681018" style="stroke: #000000; stroke-width: 0.8"/>
      </g>
     </g>
     <g id="text_22">
      <!-- 0.4 -->
      <g transform="translate(17.036875 589.480237) scale(0.1 -0.1)">
       <use xlink:href="#DejaVuSans-30"/>
       <use xlink:href="#DejaVuSans-2e" transform="translate(63.623047 0)"/>
       <use xlink:href="#DejaVuSans-34" transform="translate(95.410156 0)"/>
      </g>
     </g>
    </g>
    <g id="ytick_15">
     <g id="line2d_95">
      <path d="M 39.94 540.96252 
L 700.979817 540.96252 
" clip-path="url(#pa760a50fa4)" style="fill: none; stroke: #b0b0b0; stroke-opacity: 0.25; stroke-width: 0.8; stroke-linecap: square"/>
     </g>
     <g id="line2d_96">
      <g>
       <use xlink:href="#m83ff238738" x="39.94" y="540.96252" style="stroke: #000000; stroke-width: 0.8"/>
      </g>
     </g>
     <g id="text_23">
      <!-- 0.6 -->
      <g transform="translate(17.036875 544.761739) scale(0.1 -0.1)">
       <use xlink:href="#DejaVuSans-30"/>
       <use xlink:href="#DejaVuSans-2e" transform="translate(63.623047 0)"/>
       <use xlink:href="#DejaVuSans-36" transform="translate(95.410156 0)"/>
      </g>
     </g>
    </g>
    <g id="ytick_16">
     <g id="line2d_97">
      <path d="M 39.94 496.244022 
L 700.979817 496.244022 
" clip-path="url(#pa760a50fa4)" style="fill: none; stroke: #b0b0b0; stroke-opacity: 0.25; stroke-width: 0.8; stroke-linecap: square"/>
     </g>
     <g id="line2d_98">
      <g>
       <use xlink:href="#m83ff238738" x="39.94" y="496.244022" style="stroke: #000000; stroke-width: 0.8"/>
      </g>
     </g>
     <g id="text_24">
      <!-- 0.8 -->
      <g transform="translate(17.036875 500.04324) scale(0.1 -0.1)">
       <use xlink:href="#DejaVuSans-30"/>
       <use xlink:href="#DejaVuSans-2e" transform="translate(63.623047 0)"/>
       <use xlink:href="#DejaVuSans-38" transform="translate(95.410156 0)"/>
      </g>
     </g>
    </g>
   </g>
   <g id="line2d_99">
    <path d="M 69.987264 646.180308 
L 106.967525 643.437464 
L 106.983576 643.421145 
L 116.21259 642.999257 
L 116.228641 642.981742 
L 130.080188 641.708043 
L 130.096239 641.687673 
L 139.325253 640.097507 
L 139.341304 640.074794 
L 153.192851 637.079967 
L 153.208902 637.050814 
L 162.437916 633.252605 
L 162.453967 633.21459 
L 176.305514 624.401468 
L 176.321565 624.343775 
L 185.550579 612.983758 
L 185.56663 612.883531 
L 231.775905 538.63057 
L 231.791956 538.274535 
L 245.643503 519.693528 
L 245.659554 519.240138 
L 278.001231 493.883954 
L 291.868829 488.233322 
L 301.113894 485.847722 
L 338.094155 482.737365 
L 347.33922 483.265693 
L 347.355271 482.548732 
L 370.451883 486.131483 
L 384.319481 489.060205 
L 384.335532 488.369632 
L 407.432144 496.04887 
L 416.677209 499.67019 
L 430.544807 505.718144 
L 439.789872 509.986711 
L 462.902535 520.885255 
L 509.127861 546.806004 
L 522.995459 556.491991 
L 546.108122 573.791692 
L 546.124172 573.578224 
L 555.353187 580.369301 
L 555.369238 580.18394 
L 569.220785 590.017938 
L 578.46585 595.954098 
L 578.481901 595.825571 
L 592.333448 603.454632 
L 615.446111 613.976544 
L 615.462161 613.898627 
L 624.691176 617.270383 
L 624.707227 617.199329 
L 647.803839 624.030184 
L 647.81989 623.97271 
L 670.916502 599.332824 
L 670.932553 599.188617 
" clip-path="url(#pa760a50fa4)" style="fill: none; stroke: #1d4ed8; stroke-width: 2; stroke-linecap: square"/>
   </g>
   <g id="line2d_100">
    <path d="M 69.987264 646.180308 
L 106.967525 643.437464 
L 106.983576 643.421145 
L 116.21259 642.999257 
L 116.228641 642.981742 
L 130.080188 641.708043 
L 130.096239 641.687673 
L 139.325253 640.097507 
L 139.341304 640.074794 
L 153.192851 637.079967 
L 153.208902 637.050814 
L 162.437916 633.252605 
L 162.453967 633.21459 
L 176.305514 624.401468 
L 176.321565 624.343775 
L 185.550579 612.983758 
L 185.56663 612.883531 
L 231.775905 538.63057 
L 231.791956 538.274535 
L 245.643503 519.693528 
L 245.659554 519.240138 
L 278.001231 493.883954 
L 291.868829 488.233322 
L 301.113894 485.847722 
L 338.094155 482.737365 
L 347.33922 483.265693 
L 347.355271 482.548732 
L 370.451883 486.131483 
L 384.319481 489.060205 
L 384.335532 488.369632 
L 407.432144 496.04887 
L 416.677209 499.67019 
L 430.544807 505.718144 
L 439.789872 509.986711 
L 462.902535 520.885255 
L 509.127861 546.806004 
L 522.995459 556.491991 
L 546.108122 573.791692 
L 546.124172 573.578224 
L 555.353187 580.369301 
L 555.369238 580.18394 
L 569.220785 590.017938 
L 578.46585 595.954098 
L 578.481901 595.825571 
L 592.333448 603.454632 
L 615.446111 613.976544 
L 615.462161 613.898627 
L 624.691176 617.270383 
L 624.707227 617.199329 
L 647.803839 624.030184 
L 647.81989 623.97271 
L 670.916502 599.332824 
L 670.932553 599.188617 
" clip-path="url(#pa760a50fa4)" style="fill: none; stroke: #dc2626; stroke-width: 2; stroke-linecap: square"/>
   </g>
   <g id="line2d_101">
    <path d="M 69.987264 646.180308 
L 106.967525 643.437464 
L 106.983576 643.421145 
L 116.21259 642.999257 
L 116.228641 642.981742 
L 130.080188 641.708043 
L 130.096239 641.687673 
L 139.325253 640.097507 
L 139.341304 640.074794 
L 153.192851 637.079967 
L 153.208902 637.050814 
L 162.437916 633.252605 
L 162.453967 633.21459 
L 176.305514 624.401468 
L 176.321565 624.343775 
L 185.550579 612.983758 
L 185.56663 612.883531 
L 231.775905 538.63057 
L 231.791956 538.274535 
L 245.643503 519.693528 
L 245.659554 519.240138 
L 278.001231 493.883954 
L 291.868829 488.233322 
L 301.113894 485.847722 
L 338.094155 482.737365 
L 347.33922 483.265693 
L 347.355271 482.548732 
L 370.451883 486.131483 
L 384.319481 489.060205 
L 384.335532 488.369632 
L 407.432144 496.04887 
L 416.677209 499.67019 
L 430.544807 505.718144 
L 439.789872 509.986711 
L 462.902535 520.885255 
L 509.127861 546.806004 
L 522.995459 556.491991 
L 546.108122 573.791692 
L 546.124172 573.578224 
L 555.353187 580.369301 
L 555.369238 580.18394 
L 569.220785 590.017938 
L 578.46585 595.954098 
L 578.481901 595.825571 
L 592.333448 603.454632 
L 615.446111 613.976544 
L 615.462161 613.898627 
L 624.691176 617.270383 
L 624.707227 617.199329 
L 647.803839 624.030184 
L 647.81989 623.97271 
L 670.916502 599.332824 
L 670.932553 599.188617 
" clip-path="url(#pa760a50fa4)" style="fill: none; stroke: #0f766e; stroke-width: 2; stroke-linecap: square"/>
   </g>
   <g id="patch_15">
    <path d="M 39.94 654.361887 
L 39.94 474.367153 
" style="fill: none; stroke: #000000; stroke-width: 0.8; stroke-linejoin: miter; stroke-linecap: square"/>
   </g>
   <g id="patch_16">
    <path d="M 700.979817 654.361887 
L 700.979817 474.367153 
" style="fill: none; stroke: #000000; stroke-width: 0.8; stroke-linejoin: miter; stroke-linecap: square"/>
   </g>
   <g id="patch_17">
    <path d="M 39.94 654.361887 
L 700.979817 654.361887 
" style="fill: none; stroke: #000000; stroke-width: 0.8; stroke-linejoin: miter; stroke-linecap: square"/>
   </g>
   <g id="patch_18">
    <path d="M 39.94 474.367153 
L 700.979817 474.367153 
" style="fill: none; stroke: #000000; stroke-width: 0.8; stroke-linejoin: miter; stroke-linecap: square"/>
   </g>
   <g id="text_25">
    <!-- gammaso -->
    <g transform="translate(340.811471 468.367153) scale(0.12 -0.12)">
     <use xlink:href="#DejaVuSans-67"/>
     <use xlink:href="#DejaVuSans-61" transform="translate(63.476562 0)"/>
     <use xlink:href="#DejaVuSans-6d" transform="translate(124.755859 0)"/>
     <use xlink:href="#DejaVuSans-6d" transform="translate(222.167969 0)"/>
     <use xlink:href="#DejaVuSans-61" transform="translate(319.580078 0)"/>
     <use xlink:href="#DejaVuSans-73" transform="translate(380.859375 0)"/>
     <use xlink:href="#DejaVuSans-6f" transform="translate(432.958984 0)"/>
    </g>
   </g>
   <g id="legend_3">
    <g id="patch_19">
     <path d="M 598.336067 526.401528 
L 693.979817 526.401528 
Q 695.979817 526.401528 695.979817 524.401528 
L 695.979817 481.367153 
Q 695.979817 479.367153 693.979817 479.367153 
L 598.336067 479.367153 
Q 596.336067 479.367153 596.336067 481.367153 
L 596.336067 524.401528 
Q 596.336067 526.401528 598.336067 526.401528 
z
" style="fill: #ffffff; opacity: 0.8; stroke: #cccccc; stroke-linejoin: miter"/>
    </g>
    <g id="line2d_102">
     <path d="M 600.336067 487.465591 
L 610.336067 487.465591 
L 620.336067 487.465591 
" style="fill: none; stroke: #1d4ed8; stroke-width: 2; stroke-linecap: square"/>
    </g>
    <g id="text_26">
     <!-- reflectance -->
     <g transform="translate(628.336067 490.965591) scale(0.1 -0.1)">
      <use xlink:href="#DejaVuSans-72"/>
      <use xlink:href="#DejaVuSans-65" transform="translate(38.863281 0)"/>
      <use xlink:href="#DejaVuSans-66" transform="translate(100.386719 0)"/>
      <use xlink:href="#DejaVuSans-6c" transform="translate(135.591797 0)"/>
      <use xlink:href="#DejaVuSans-65" transform="translate(163.375 0)"/>
      <use xlink:href="#DejaVuSans-63" transform="translate(224.898438 0)"/>
      <use xlink:href="#DejaVuSans-74" transform="translate(279.878906 0)"/>
      <use xlink:href="#DejaVuSans-61" transform="translate(319.087891 0)"/>
      <use xlink:href="#DejaVuSans-6e" transform="translate(380.367188 0)"/>
      <use xlink:href="#DejaVuSans-63" transform="translate(443.746094 0)"/>
      <use xlink:href="#DejaVuSans-65" transform="translate(498.726562 0)"/>
     </g>
    </g>
    <g id="line2d_103">
     <path d="M 600.336067 502.143716 
L 610.336067 502.143716 
L 620.336067 502.143716 
" style="fill: none; stroke: #dc2626; stroke-width: 2; stroke-linecap: square"/>
    </g>
    <g id="text_27">
     <!-- fluorescence -->
     <g transform="translate(628.336067 505.643716) scale(0.1 -0.1)">
      <use xlink:href="#DejaVuSans-66"/>
      <use xlink:href="#DejaVuSans-6c" transform="translate(35.205078 0)"/>
      <use xlink:href="#DejaVuSans-75" transform="translate(62.988281 0)"/>
      <use xlink:href="#DejaVuSans-6f" transform="translate(126.367188 0)"/>
      <use xlink:href="#DejaVuSans-72" transform="translate(187.548828 0)"/>
      <use xlink:href="#DejaVuSans-65" transform="translate(226.412109 0)"/>
      <use xlink:href="#DejaVuSans-73" transform="translate(287.935547 0)"/>
      <use xlink:href="#DejaVuSans-63" transform="translate(340.035156 0)"/>
      <use xlink:href="#DejaVuSans-65" transform="translate(395.015625 0)"/>
      <use xlink:href="#DejaVuSans-6e" transform="translate(456.539062 0)"/>
      <use xlink:href="#DejaVuSans-63" transform="translate(519.917969 0)"/>
      <use xlink:href="#DejaVuSans-65" transform="translate(574.898438 0)"/>
     </g>
    </g>
    <g id="line2d_104">
     <path d="M 600.336067 516.821841 
L 610.336067 516.821841 
L 620.336067 516.821841 
" style="fill: none; stroke: #0f766e; stroke-width: 2; stroke-linecap: square"/>
    </g>
    <g id="text_28">
     <!-- thermal -->
     <g transform="translate(628.336067 520.321841) scale(0.1 -0.1)">
      <use xlink:href="#DejaVuSans-74"/>
      <use xlink:href="#DejaVuSans-68" transform="translate(39.208984 0)"/>
      <use xlink:href="#DejaVuSans-65" transform="translate(102.587891 0)"/>
      <use xlink:href="#DejaVuSans-72" transform="translate(164.111328 0)"/>
      <use xlink:href="#DejaVuSans-6d" transform="translate(203.474609 0)"/>
      <use xlink:href="#DejaVuSans-61" transform="translate(300.886719 0)"/>
      <use xlink:href="#DejaVuSans-6c" transform="translate(362.166016 0)"/>
     </g>
    </g>
   </g>
  </g>
  <g id="axes_4">
   <g id="patch_20">
    <path d="M 39.94 866.225464 
L 700.979817 866.225464 
L 700.979817 686.23073 
L 39.94 686.23073 
z
" style="fill: #ffffff"/>
   </g>
   <g id="matplotlib.axis_7">
    <g id="xtick_28">
     <g id="line2d_105">
      <path d="M 114.190232 866.225464 
L 114.190232 686.23073 
" clip-path="url(#p88ade01622)" style="fill: none; stroke: #b0b0b0; stroke-opacity: 0.25; stroke-width: 0.8; stroke-linecap: square"/>
     </g>
     <g id="line2d_106">
      <g>
       <use xlink:href="#m7cf79d54dd" x="114.190232" y="866.225464" style="stroke: #000000; stroke-width: 0.8"/>
      </g>
     </g>
     <g id="text_29">
      <!-- 2021-06-01 -->
      <g transform="translate(90.405116 908.863716) rotate(-30) scale(0.1 -0.1)">
       <defs>
        <path id="DejaVuSans-31" d="M 794 531 
L 1825 531 
L 1825 4091 
L 703 3866 
L 703 4441 
L 1819 4666 
L 2450 4666 
L 2450 531 
L 3481 531 
L 3481 0 
L 794 0 
L 794 531 
z
" transform="scale(0.015625)"/>
        <path id="DejaVuSans-2d" d="M 313 2009 
L 1997 2009 
L 1997 1497 
L 313 1497 
L 313 2009 
z
" transform="scale(0.015625)"/>
       </defs>
       <use xlink:href="#DejaVuSans-32"/>
       <use xlink:href="#DejaVuSans-30" transform="translate(63.623047 0)"/>
       <use xlink:href="#DejaVuSans-32" transform="translate(127.246094 0)"/>
       <use xlink:href="#DejaVuSans-31" transform="translate(190.869141 0)"/>
       <use xlink:href="#DejaVuSans-2d" transform="translate(254.492188 0)"/>
       <use xlink:href="#DejaVuSans-30" transform="translate(290.576172 0)"/>
       <use xlink:href="#DejaVuSans-36" transform="translate(354.199219 0)"/>
       <use xlink:href="#DejaVuSans-2d" transform="translate(417.822266 0)"/>
       <use xlink:href="#DejaVuSans-30" transform="translate(453.90625 0)"/>
       <use xlink:href="#DejaVuSans-31" transform="translate(517.529297 0)"/>
      </g>
     </g>
    </g>
    <g id="xtick_29">
     <g id="line2d_107">
      <path d="M 178.905689 866.225464 
L 178.905689 686.23073 
" clip-path="url(#p88ade01622)" style="fill: none; stroke: #b0b0b0; stroke-opacity: 0.25; stroke-width: 0.8; stroke-linecap: square"/>
     </g>
     <g id="line2d_108">
      <g>
       <use xlink:href="#m7cf79d54dd" x="178.905689" y="866.225464" style="stroke: #000000; stroke-width: 0.8"/>
      </g>
     </g>
     <g id="text_30">
      <!-- 2021-06-15 -->
      <g transform="translate(155.120572 908.863716) rotate(-30) scale(0.1 -0.1)">
       <use xlink:href="#DejaVuSans-32"/>
       <use xlink:href="#DejaVuSans-30" transform="translate(63.623047 0)"/>
       <use xlink:href="#DejaVuSans-32" transform="translate(127.246094 0)"/>
       <use xlink:href="#DejaVuSans-31" transform="translate(190.869141 0)"/>
       <use xlink:href="#DejaVuSans-2d" transform="translate(254.492188 0)"/>
       <use xlink:href="#DejaVuSans-30" transform="translate(290.576172 0)"/>
       <use xlink:href="#DejaVuSans-36" transform="translate(354.199219 0)"/>
       <use xlink:href="#DejaVuSans-2d" transform="translate(417.822266 0)"/>
       <use xlink:href="#DejaVuSans-31" transform="translate(453.90625 0)"/>
       <use xlink:href="#DejaVuSans-35" transform="translate(517.529297 0)"/>
      </g>
     </g>
    </g>
    <g id="xtick_30">
     <g id="line2d_109">
      <path d="M 252.86621 866.225464 
L 252.86621 686.23073 
" clip-path="url(#p88ade01622)" style="fill: none; stroke: #b0b0b0; stroke-opacity: 0.25; stroke-width: 0.8; stroke-linecap: square"/>
     </g>
     <g id="line2d_110">
      <g>
       <use xlink:href="#m7cf79d54dd" x="252.86621" y="866.225464" style="stroke: #000000; stroke-width: 0.8"/>
      </g>
     </g>
     <g id="text_31">
      <!-- 2021-07-01 -->
      <g transform="translate(229.081094 908.863716) rotate(-30) scale(0.1 -0.1)">
       <use xlink:href="#DejaVuSans-32"/>
       <use xlink:href="#DejaVuSans-30" transform="translate(63.623047 0)"/>
       <use xlink:href="#DejaVuSans-32" transform="translate(127.246094 0)"/>
       <use xlink:href="#DejaVuSans-31" transform="translate(190.869141 0)"/>
       <use xlink:href="#DejaVuSans-2d" transform="translate(254.492188 0)"/>
       <use xlink:href="#DejaVuSans-30" transform="translate(290.576172 0)"/>
       <use xlink:href="#DejaVuSans-37" transform="translate(354.199219 0)"/>
       <use xlink:href="#DejaVuSans-2d" transform="translate(417.822266 0)"/>
       <use xlink:href="#DejaVuSans-30" transform="translate(453.90625 0)"/>
       <use xlink:href="#DejaVuSans-31" transform="translate(517.529297 0)"/>
      </g>
     </g>
    </g>
    <g id="xtick_31">
     <g id="line2d_111">
      <path d="M 317.581667 866.225464 
L 317.581667 686.23073 
" clip-path="url(#p88ade01622)" style="fill: none; stroke: #b0b0b0; stroke-opacity: 0.25; stroke-width: 0.8; stroke-linecap: square"/>
     </g>
     <g id="line2d_112">
      <g>
       <use xlink:href="#m7cf79d54dd" x="317.581667" y="866.225464" style="stroke: #000000; stroke-width: 0.8"/>
      </g>
     </g>
     <g id="text_32">
      <!-- 2021-07-15 -->
      <g transform="translate(293.79655 908.863716) rotate(-30) scale(0.1 -0.1)">
       <use xlink:href="#DejaVuSans-32"/>
       <use xlink:href="#DejaVuSans-30" transform="translate(63.623047 0)"/>
       <use xlink:href="#DejaVuSans-32" transform="translate(127.246094 0)"/>
       <use xlink:href="#DejaVuSans-31" transform="translate(190.869141 0)"/>
       <use xlink:href="#DejaVuSans-2d" transform="translate(254.492188 0)"/>
       <use xlink:href="#DejaVuSans-30" transform="translate(290.576172 0)"/>
       <use xlink:href="#DejaVuSans-37" transform="translate(354.199219 0)"/>
       <use xlink:href="#DejaVuSans-2d" transform="translate(417.822266 0)"/>
       <use xlink:href="#DejaVuSans-31" transform="translate(453.90625 0)"/>
       <use xlink:href="#DejaVuSans-35" transform="translate(517.529297 0)"/>
      </g>
     </g>
    </g>
    <g id="xtick_32">
     <g id="line2d_113">
      <path d="M 396.164721 866.225464 
L 396.164721 686.23073 
" clip-path="url(#p88ade01622)" style="fill: none; stroke: #b0b0b0; stroke-opacity: 0.25; stroke-width: 0.8; stroke-linecap: square"/>
     </g>
     <g id="line2d_114">
      <g>
       <use xlink:href="#m7cf79d54dd" x="396.164721" y="866.225464" style="stroke: #000000; stroke-width: 0.8"/>
      </g>
     </g>
     <g id="text_33">
      <!-- 2021-08-01 -->
      <g transform="translate(372.379605 908.863716) rotate(-30) scale(0.1 -0.1)">
       <use xlink:href="#DejaVuSans-32"/>
       <use xlink:href="#DejaVuSans-30" transform="translate(63.623047 0)"/>
       <use xlink:href="#DejaVuSans-32" transform="translate(127.246094 0)"/>
       <use xlink:href="#DejaVuSans-31" transform="translate(190.869141 0)"/>
       <use xlink:href="#DejaVuSans-2d" transform="translate(254.492188 0)"/>
       <use xlink:href="#DejaVuSans-30" transform="translate(290.576172 0)"/>
       <use xlink:href="#DejaVuSans-38" transform="translate(354.199219 0)"/>
       <use xlink:href="#DejaVuSans-2d" transform="translate(417.822266 0)"/>
       <use xlink:href="#DejaVuSans-30" transform="translate(453.90625 0)"/>
       <use xlink:href="#DejaVuSans-31" transform="translate(517.529297 0)"/>
      </g>
     </g>
    </g>
    <g id="xtick_33">
     <g id="line2d_115">
      <path d="M 460.880177 866.225464 
L 460.880177 686.23073 
" clip-path="url(#p88ade01622)" style="fill: none; stroke: #b0b0b0; stroke-opacity: 0.25; stroke-width: 0.8; stroke-linecap: square"/>
     </g>
     <g id="line2d_116">
      <g>
       <use xlink:href="#m7cf79d54dd" x="460.880177" y="866.225464" style="stroke: #000000; stroke-width: 0.8"/>
      </g>
     </g>
     <g id="text_34">
      <!-- 2021-08-15 -->
      <g transform="translate(437.095061 908.863716) rotate(-30) scale(0.1 -0.1)">
       <use xlink:href="#DejaVuSans-32"/>
       <use xlink:href="#DejaVuSans-30" transform="translate(63.623047 0)"/>
       <use xlink:href="#DejaVuSans-32" transform="translate(127.246094 0)"/>
       <use xlink:href="#DejaVuSans-31" transform="translate(190.869141 0)"/>
       <use xlink:href="#DejaVuSans-2d" transform="translate(254.492188 0)"/>
       <use xlink:href="#DejaVuSans-30" transform="translate(290.576172 0)"/>
       <use xlink:href="#DejaVuSans-38" transform="translate(354.199219 0)"/>
       <use xlink:href="#DejaVuSans-2d" transform="translate(417.822266 0)"/>
       <use xlink:href="#DejaVuSans-31" transform="translate(453.90625 0)"/>
       <use xlink:href="#DejaVuSans-35" transform="translate(517.529297 0)"/>
      </g>
     </g>
    </g>
    <g id="xtick_34">
     <g id="line2d_117">
      <path d="M 539.463231 866.225464 
L 539.463231 686.23073 
" clip-path="url(#p88ade01622)" style="fill: none; stroke: #b0b0b0; stroke-opacity: 0.25; stroke-width: 0.8; stroke-linecap: square"/>
     </g>
     <g id="line2d_118">
      <g>
       <use xlink:href="#m7cf79d54dd" x="539.463231" y="866.225464" style="stroke: #000000; stroke-width: 0.8"/>
      </g>
     </g>
     <g id="text_35">
      <!-- 2021-09-01 -->
      <g transform="translate(515.678115 908.863716) rotate(-30) scale(0.1 -0.1)">
       <use xlink:href="#DejaVuSans-32"/>
       <use xlink:href="#DejaVuSans-30" transform="translate(63.623047 0)"/>
       <use xlink:href="#DejaVuSans-32" transform="translate(127.246094 0)"/>
       <use xlink:href="#DejaVuSans-31" transform="translate(190.869141 0)"/>
       <use xlink:href="#DejaVuSans-2d" transform="translate(254.492188 0)"/>
       <use xlink:href="#DejaVuSans-30" transform="translate(290.576172 0)"/>
       <use xlink:href="#DejaVuSans-39" transform="translate(354.199219 0)"/>
       <use xlink:href="#DejaVuSans-2d" transform="translate(417.822266 0)"/>
       <use xlink:href="#DejaVuSans-30" transform="translate(453.90625 0)"/>
       <use xlink:href="#DejaVuSans-31" transform="translate(517.529297 0)"/>
      </g>
     </g>
    </g>
    <g id="xtick_35">
     <g id="line2d_119">
      <path d="M 604.178688 866.225464 
L 604.178688 686.23073 
" clip-path="url(#p88ade01622)" style="fill: none; stroke: #b0b0b0; stroke-opacity: 0.25; stroke-width: 0.8; stroke-linecap: square"/>
     </g>
     <g id="line2d_120">
      <g>
       <use xlink:href="#m7cf79d54dd" x="604.178688" y="866.225464" style="stroke: #000000; stroke-width: 0.8"/>
      </g>
     </g>
     <g id="text_36">
      <!-- 2021-09-15 -->
      <g transform="translate(580.393571 908.863716) rotate(-30) scale(0.1 -0.1)">
       <use xlink:href="#DejaVuSans-32"/>
       <use xlink:href="#DejaVuSans-30" transform="translate(63.623047 0)"/>
       <use xlink:href="#DejaVuSans-32" transform="translate(127.246094 0)"/>
       <use xlink:href="#DejaVuSans-31" transform="translate(190.869141 0)"/>
       <use xlink:href="#DejaVuSans-2d" transform="translate(254.492188 0)"/>
       <use xlink:href="#DejaVuSans-30" transform="translate(290.576172 0)"/>
       <use xlink:href="#DejaVuSans-39" transform="translate(354.199219 0)"/>
       <use xlink:href="#DejaVuSans-2d" transform="translate(417.822266 0)"/>
       <use xlink:href="#DejaVuSans-31" transform="translate(453.90625 0)"/>
       <use xlink:href="#DejaVuSans-35" transform="translate(517.529297 0)"/>
      </g>
     </g>
    </g>
    <g id="xtick_36">
     <g id="line2d_121">
      <path d="M 678.139209 866.225464 
L 678.139209 686.23073 
" clip-path="url(#p88ade01622)" style="fill: none; stroke: #b0b0b0; stroke-opacity: 0.25; stroke-width: 0.8; stroke-linecap: square"/>
     </g>
     <g id="line2d_122">
      <g>
       <use xlink:href="#m7cf79d54dd" x="678.139209" y="866.225464" style="stroke: #000000; stroke-width: 0.8"/>
      </g>
     </g>
     <g id="text_37">
      <!-- 2021-10-01 -->
      <g transform="translate(654.354093 908.863716) rotate(-30) scale(0.1 -0.1)">
       <use xlink:href="#DejaVuSans-32"/>
       <use xlink:href="#DejaVuSans-30" transform="translate(63.623047 0)"/>
       <use xlink:href="#DejaVuSans-32" transform="translate(127.246094 0)"/>
       <use xlink:href="#DejaVuSans-31" transform="translate(190.869141 0)"/>
       <use xlink:href="#DejaVuSans-2d" transform="translate(254.492188 0)"/>
       <use xlink:href="#DejaVuSans-31" transform="translate(290.576172 0)"/>
       <use xlink:href="#DejaVuSans-30" transform="translate(354.199219 0)"/>
       <use xlink:href="#DejaVuSans-2d" transform="translate(417.822266 0)"/>
       <use xlink:href="#DejaVuSans-30" transform="translate(453.90625 0)"/>
       <use xlink:href="#DejaVuSans-31" transform="translate(517.529297 0)"/>
      </g>
     </g>
    </g>
   </g>
   <g id="matplotlib.axis_8">
    <g id="ytick_17">
     <g id="line2d_123">
      <path d="M 39.94 855.594177 
L 700.979817 855.594177 
" clip-path="url(#p88ade01622)" style="fill: none; stroke: #b0b0b0; stroke-opacity: 0.25; stroke-width: 0.8; stroke-linecap: square"/>
     </g>
     <g id="line2d_124">
      <g>
       <use xlink:href="#m83ff238738" x="39.94" y="855.594177" style="stroke: #000000; stroke-width: 0.8"/>
      </g>
     </g>
     <g id="text_38">
      <!-- 0.23 -->
      <g transform="translate(10.674375 859.393396) scale(0.1 -0.1)">
       <use xlink:href="#DejaVuSans-30"/>
       <use xlink:href="#DejaVuSans-2e" transform="translate(63.623047 0)"/>
       <use xlink:href="#DejaVuSans-32" transform="translate(95.410156 0)"/>
       <use xlink:href="#DejaVuSans-33" transform="translate(159.033203 0)"/>
      </g>
     </g>
    </g>
    <g id="ytick_18">
     <g id="line2d_125">
      <path d="M 39.94 828.566613 
L 700.979817 828.566613 
" clip-path="url(#p88ade01622)" style="fill: none; stroke: #b0b0b0; stroke-opacity: 0.25; stroke-width: 0.8; stroke-linecap: square"/>
     </g>
     <g id="line2d_126">
      <g>
       <use xlink:href="#m83ff238738" x="39.94" y="828.566613" style="stroke: #000000; stroke-width: 0.8"/>
      </g>
     </g>
     <g id="text_39">
      <!-- 0.24 -->
      <g transform="translate(10.674375 832.365832) scale(0.1 -0.1)">
       <use xlink:href="#DejaVuSans-30"/>
       <use xlink:href="#DejaVuSans-2e" transform="translate(63.623047 0)"/>
       <use xlink:href="#DejaVuSans-32" transform="translate(95.410156 0)"/>
       <use xlink:href="#DejaVuSans-34" transform="translate(159.033203 0)"/>
      </g>
     </g>
    </g>
    <g id="ytick_19">
     <g id="line2d_127">
      <path d="M 39.94 801.539048 
L 700.979817 801.539048 
" clip-path="url(#p88ade01622)" style="fill: none; stroke: #b0b0b0; stroke-opacity: 0.25; stroke-width: 0.8; stroke-linecap: square"/>
     </g>
     <g id="line2d_128">
      <g>
       <use xlink:href="#m83ff238738" x="39.94" y="801.539048" style="stroke: #000000; stroke-width: 0.8"/>
      </g>
     </g>
     <g id="text_40">
      <!-- 0.25 -->
      <g transform="translate(10.674375 805.338267) scale(0.1 -0.1)">
       <use xlink:href="#DejaVuSans-30"/>
       <use xlink:href="#DejaVuSans-2e" transform="translate(63.623047 0)"/>
       <use xlink:href="#DejaVuSans-32" transform="translate(95.410156 0)"/>
       <use xlink:href="#DejaVuSans-35" transform="translate(159.033203 0)"/>
      </g>
     </g>
    </g>
    <g id="ytick_20">
     <g id="line2d_129">
      <path d="M 39.94 774.511484 
L 700.979817 774.511484 
" clip-path="url(#p88ade01622)" style="fill: none; stroke: #b0b0b0; stroke-opacity: 0.25; stroke-width: 0.8; stroke-linecap: square"/>
     </g>
     <g id="line2d_130">
      <g>
       <use xlink:href="#m83ff238738" x="39.94" y="774.511484" style="stroke: #000000; stroke-width: 0.8"/>
      </g>
     </g>
     <g id="text_41">
      <!-- 0.26 -->
      <g transform="translate(10.674375 778.310702) scale(0.1 -0.1)">
       <use xlink:href="#DejaVuSans-30"/>
       <use xlink:href="#DejaVuSans-2e" transform="translate(63.623047 0)"/>
       <use xlink:href="#DejaVuSans-32" transform="translate(95.410156 0)"/>
       <use xlink:href="#DejaVuSans-36" transform="translate(159.033203 0)"/>
      </g>
     </g>
    </g>
    <g id="ytick_21">
     <g id="line2d_131">
      <path d="M 39.94 747.483919 
L 700.979817 747.483919 
" clip-path="url(#p88ade01622)" style="fill: none; stroke: #b0b0b0; stroke-opacity: 0.25; stroke-width: 0.8; stroke-linecap: square"/>
     </g>
     <g id="line2d_132">
      <g>
       <use xlink:href="#m83ff238738" x="39.94" y="747.483919" style="stroke: #000000; stroke-width: 0.8"/>
      </g>
     </g>
     <g id="text_42">
      <!-- 0.27 -->
      <g transform="translate(10.674375 751.283138) scale(0.1 -0.1)">
       <use xlink:href="#DejaVuSans-30"/>
       <use xlink:href="#DejaVuSans-2e" transform="translate(63.623047 0)"/>
       <use xlink:href="#DejaVuSans-32" transform="translate(95.410156 0)"/>
       <use xlink:href="#DejaVuSans-37" transform="translate(159.033203 0)"/>
      </g>
     </g>
    </g>
    <g id="ytick_22">
     <g id="line2d_133">
      <path d="M 39.94 720.456355 
L 700.979817 720.456355 
" clip-path="url(#p88ade01622)" style="fill: none; stroke: #b0b0b0; stroke-opacity: 0.25; stroke-width: 0.8; stroke-linecap: square"/>
     </g>
     <g id="line2d_134">
      <g>
       <use xlink:href="#m83ff238738" x="39.94" y="720.456355" style="stroke: #000000; stroke-width: 0.8"/>
      </g>
     </g>
     <g id="text_43">
      <!-- 0.28 -->
      <g transform="translate(10.674375 724.255573) scale(0.1 -0.1)">
       <use xlink:href="#DejaVuSans-30"/>
       <use xlink:href="#DejaVuSans-2e" transform="translate(63.623047 0)"/>
       <use xlink:href="#DejaVuSans-32" transform="translate(95.410156 0)"/>
       <use xlink:href="#DejaVuSans-38" transform="translate(159.033203 0)"/>
      </g>
     </g>
    </g>
    <g id="ytick_23">
     <g id="line2d_135">
      <path d="M 39.94 693.42879 
L 700.979817 693.42879 
" clip-path="url(#p88ade01622)" style="fill: none; stroke: #b0b0b0; stroke-opacity: 0.25; stroke-width: 0.8; stroke-linecap: square"/>
     </g>
     <g id="line2d_136">
      <g>
       <use xlink:href="#m83ff238738" x="39.94" y="693.42879" style="stroke: #000000; stroke-width: 0.8"/>
      </g>
     </g>
     <g id="text_44">
      <!-- 0.29 -->
      <g transform="translate(10.674375 697.228009) scale(0.1 -0.1)">
       <use xlink:href="#DejaVuSans-30"/>
       <use xlink:href="#DejaVuSans-2e" transform="translate(63.623047 0)"/>
       <use xlink:href="#DejaVuSans-32" transform="translate(95.410156 0)"/>
       <use xlink:href="#DejaVuSans-39" transform="translate(159.033203 0)"/>
      </g>
     </g>
    </g>
   </g>
   <g id="line2d_137">
    <path d="M 69.987264 694.412309 
L 106.967525 712.562203 
L 106.983576 712.572353 
L 116.21259 718.36467 
L 116.228641 718.375141 
L 130.080188 728.326496 
L 130.096239 728.343814 
L 139.325253 738.290094 
L 139.341304 738.308781 
L 153.192851 754.492086 
L 153.208902 754.516492 
L 162.437916 770.204424 
L 162.453967 770.241718 
L 176.305514 800.912704 
L 176.321565 800.953058 
L 185.550579 821.02218 
L 185.56663 821.043647 
L 231.775905 858.043885 
L 231.791956 858.030635 
L 245.643503 847.218178 
L 245.659554 847.205773 
L 278.001231 823.256513 
L 291.868829 815.448471 
L 301.113894 810.756687 
L 338.094155 797.217626 
L 347.33922 794.773384 
L 347.355271 794.770484 
L 370.451883 791.583586 
L 384.319481 792.852223 
L 384.335532 792.857781 
L 407.432144 801.339691 
L 416.677209 806.767325 
L 430.544807 815.532 
L 439.789872 820.378115 
L 462.902535 828.942506 
L 509.127861 843.820766 
L 522.995459 848.730676 
L 546.108122 855.041604 
L 546.124172 855.042329 
L 555.353187 855.477169 
L 555.369238 855.478015 
L 569.220785 855.747611 
L 578.46585 854.812645 
L 578.481901 854.809624 
L 592.333448 852.282539 
L 615.446111 845.927913 
L 615.462161 845.923281 
L 624.691176 843.008113 
L 624.707227 843.003119 
L 647.803839 834.22463 
L 647.81989 834.218025 
L 670.916502 826.812887 
L 670.932553 826.812887 
" clip-path="url(#p88ade01622)" style="fill: none; stroke: #1d4ed8; stroke-width: 2; stroke-linecap: square"/>
   </g>
   <g id="line2d_138">
    <path d="M 69.987264 694.412309 
L 106.967525 712.562203 
L 106.983576 712.572353 
L 116.21259 718.36467 
L 116.228641 718.375141 
L 130.080188 728.326496 
L 130.096239 728.343814 
L 139.325253 738.290094 
L 139.341304 738.308781 
L 153.192851 754.492086 
L 153.208902 754.516492 
L 162.437916 770.204424 
L 162.453967 770.241718 
L 176.305514 800.912704 
L 176.321565 800.953058 
L 185.550579 821.02218 
L 185.56663 821.043647 
L 231.775905 858.043885 
L 231.791956 858.030635 
L 245.643503 847.218178 
L 245.659554 847.205773 
L 278.001231 823.256513 
L 291.868829 815.448471 
L 301.113894 810.756687 
L 338.094155 797.217626 
L 347.33922 794.773384 
L 347.355271 794.770484 
L 370.451883 791.583586 
L 384.319481 792.852223 
L 384.335532 792.857781 
L 407.432144 801.339691 
L 416.677209 806.767325 
L 430.544807 815.532 
L 439.789872 820.378115 
L 462.902535 828.942506 
L 509.127861 843.820766 
L 522.995459 848.730676 
L 546.108122 855.041604 
L 546.124172 855.042329 
L 555.353187 855.477169 
L 555.369238 855.478015 
L 569.220785 855.747611 
L 578.46585 854.812645 
L 578.481901 854.809624 
L 592.333448 852.282539 
L 615.446111 845.927913 
L 615.462161 845.923281 
L 624.691176 843.008113 
L 624.707227 843.003119 
L 647.803839 834.22463 
L 647.81989 834.218025 
L 670.916502 826.812887 
L 670.932553 826.812887 
" clip-path="url(#p88ade01622)" style="fill: none; stroke: #dc2626; stroke-width: 2; stroke-linecap: square"/>
   </g>
   <g id="line2d_139">
    <path d="M 69.987264 694.412309 
L 106.967525 712.562203 
L 106.983576 712.572353 
L 116.21259 718.36467 
L 116.228641 718.375141 
L 130.080188 728.326496 
L 130.096239 728.343814 
L 139.325253 738.290094 
L 139.341304 738.308781 
L 153.192851 754.492086 
L 153.208902 754.516492 
L 162.437916 770.204424 
L 162.453967 770.241718 
L 176.305514 800.912704 
L 176.321565 800.953058 
L 185.550579 821.02218 
L 185.56663 821.043647 
L 231.775905 858.043885 
L 231.791956 858.030635 
L 245.643503 847.218178 
L 245.659554 847.205773 
L 278.001231 823.256513 
L 291.868829 815.448471 
L 301.113894 810.756687 
L 338.094155 797.217626 
L 347.33922 794.773384 
L 347.355271 794.770484 
L 370.451883 791.583586 
L 384.319481 792.852223 
L 384.335532 792.857781 
L 407.432144 801.339691 
L 416.677209 806.767325 
L 430.544807 815.532 
L 439.789872 820.378115 
L 462.902535 828.942506 
L 509.127861 843.820766 
L 522.995459 848.730676 
L 546.108122 855.041604 
L 546.124172 855.042329 
L 555.353187 855.477169 
L 555.369238 855.478015 
L 569.220785 855.747611 
L 578.46585 854.812645 
L 578.481901 854.809624 
L 592.333448 852.282539 
L 615.446111 845.927913 
L 615.462161 845.923281 
L 624.691176 843.008113 
L 624.707227 843.003119 
L 647.803839 834.22463 
L 647.81989 834.218025 
L 670.916502 826.812887 
L 670.932553 826.812887 
" clip-path="url(#p88ade01622)" style="fill: none; stroke: #0f766e; stroke-width: 2; stroke-linecap: square"/>
   </g>
   <g id="patch_21">
    <path d="M 39.94 866.225464 
L 39.94 686.23073 
" style="fill: none; stroke: #000000; stroke-width: 0.8; stroke-linejoin: miter; stroke-linecap: square"/>
   </g>
   <g id="patch_22">
    <path d="M 700.979817 866.225464 
L 700.979817 686.23073 
" style="fill: none; stroke: #000000; stroke-width: 0.8; stroke-linejoin: miter; stroke-linecap: square"/>
   </g>
   <g id="patch_23">
    <path d="M 39.94 866.225464 
L 700.979817 866.225464 
" style="fill: none; stroke: #000000; stroke-width: 0.8; stroke-linejoin: miter; stroke-linecap: square"/>
   </g>
   <g id="patch_24">
    <path d="M 39.94 686.23073 
L 700.979817 686.23073 
" style="fill: none; stroke: #000000; stroke-width: 0.8; stroke-linejoin: miter; stroke-linecap: square"/>
   </g>
   <g id="text_45">
    <!-- leaf_refl -->
    <g transform="translate(346.509596 680.23073) scale(0.12 -0.12)">
     <defs>
      <path id="DejaVuSans-5f" d="M 3263 -1063 
L 3263 -1509 
L -63 -1509 
L -63 -1063 
L 3263 -1063 
z
" transform="scale(0.015625)"/>
     </defs>
     <use xlink:href="#DejaVuSans-6c"/>
     <use xlink:href="#DejaVuSans-65" transform="translate(27.783203 0)"/>
     <use xlink:href="#DejaVuSans-61" transform="translate(89.306641 0)"/>
     <use xlink:href="#DejaVuSans-66" transform="translate(150.585938 0)"/>
     <use xlink:href="#DejaVuSans-5f" transform="translate(185.791016 0)"/>
     <use xlink:href="#DejaVuSans-72" transform="translate(235.791016 0)"/>
     <use xlink:href="#DejaVuSans-65" transform="translate(274.654297 0)"/>
     <use xlink:href="#DejaVuSans-66" transform="translate(336.177734 0)"/>
     <use xlink:href="#DejaVuSans-6c" transform="translate(371.382812 0)"/>
    </g>
   </g>
   <g id="legend_4">
    <g id="patch_25">
     <path d="M 598.336067 738.265105 
L 693.979817 738.265105 
Q 695.979817 738.265105 695.979817 736.265105 
L 695.979817 693.23073 
Q 695.979817 691.23073 693.979817 691.23073 
L 598.336067 691.23073 
Q 596.336067 691.23073 596.336067 693.23073 
L 596.336067 736.265105 
Q 596.336067 738.265105 598.336067 738.265105 
z
" style="fill: #ffffff; opacity: 0.8; stroke: #cccccc; stroke-linejoin: miter"/>
    </g>
    <g id="line2d_140">
     <path d="M 600.336067 699.329167 
L 610.336067 699.329167 
L 620.336067 699.329167 
" style="fill: none; stroke: #1d4ed8; stroke-width: 2; stroke-linecap: square"/>
    </g>
    <g id="text_46">
     <!-- reflectance -->
     <g transform="translate(628.336067 702.829167) scale(0.1 -0.1)">
      <use xlink:href="#DejaVuSans-72"/>
      <use xlink:href="#DejaVuSans-65" transform="translate(38.863281 0)"/>
      <use xlink:href="#DejaVuSans-66" transform="translate(100.386719 0)"/>
      <use xlink:href="#DejaVuSans-6c" transform="translate(135.591797 0)"/>
      <use xlink:href="#DejaVuSans-65" transform="translate(163.375 0)"/>
      <use xlink:href="#DejaVuSans-63" transform="translate(224.898438 0)"/>
      <use xlink:href="#DejaVuSans-74" transform="translate(279.878906 0)"/>
      <use xlink:href="#DejaVuSans-61" transform="translate(319.087891 0)"/>
      <use xlink:href="#DejaVuSans-6e" transform="translate(380.367188 0)"/>
      <use xlink:href="#DejaVuSans-63" transform="translate(443.746094 0)"/>
      <use xlink:href="#DejaVuSans-65" transform="translate(498.726562 0)"/>
     </g>
    </g>
    <g id="line2d_141">
     <path d="M 600.336067 714.007292 
L 610.336067 714.007292 
L 620.336067 714.007292 
" style="fill: none; stroke: #dc2626; stroke-width: 2; stroke-linecap: square"/>
    </g>
    <g id="text_47">
     <!-- fluorescence -->
     <g transform="translate(628.336067 717.507292) scale(0.1 -0.1)">
      <use xlink:href="#DejaVuSans-66"/>
      <use xlink:href="#DejaVuSans-6c" transform="translate(35.205078 0)"/>
      <use xlink:href="#DejaVuSans-75" transform="translate(62.988281 0)"/>
      <use xlink:href="#DejaVuSans-6f" transform="translate(126.367188 0)"/>
      <use xlink:href="#DejaVuSans-72" transform="translate(187.548828 0)"/>
      <use xlink:href="#DejaVuSans-65" transform="translate(226.412109 0)"/>
      <use xlink:href="#DejaVuSans-73" transform="translate(287.935547 0)"/>
      <use xlink:href="#DejaVuSans-63" transform="translate(340.035156 0)"/>
      <use xlink:href="#DejaVuSans-65" transform="translate(395.015625 0)"/>
      <use xlink:href="#DejaVuSans-6e" transform="translate(456.539062 0)"/>
      <use xlink:href="#DejaVuSans-63" transform="translate(519.917969 0)"/>
      <use xlink:href="#DejaVuSans-65" transform="translate(574.898438 0)"/>
     </g>
    </g>
    <g id="line2d_142">
     <path d="M 600.336067 728.685417 
L 610.336067 728.685417 
L 620.336067 728.685417 
" style="fill: none; stroke: #0f766e; stroke-width: 2; stroke-linecap: square"/>
    </g>
    <g id="text_48">
     <!-- thermal -->
     <g transform="translate(628.336067 732.185417) scale(0.1 -0.1)">
      <use xlink:href="#DejaVuSans-74"/>
      <use xlink:href="#DejaVuSans-68" transform="translate(39.208984 0)"/>
      <use xlink:href="#DejaVuSans-65" transform="translate(102.587891 0)"/>
      <use xlink:href="#DejaVuSans-72" transform="translate(164.111328 0)"/>
      <use xlink:href="#DejaVuSans-6d" transform="translate(203.474609 0)"/>
      <use xlink:href="#DejaVuSans-61" transform="translate(300.886719 0)"/>
      <use xlink:href="#DejaVuSans-6c" transform="translate(362.166016 0)"/>
     </g>
    </g>
   </g>
  </g>
  <g id="text_49">
   <!-- Shared outputs compared across workflows -->
   <g transform="translate(228.97125 -9.313875) scale(0.12 -0.12)">
    <defs>
     <path id="DejaVuSans-53" d="M 3425 4513 
L 3425 3897 
Q 3066 4069 2747 4153 
Q 2428 4238 2131 4238 
Q 1616 4238 1336 4038 
Q 1056 3838 1056 3469 
Q 1056 3159 1242 3001 
Q 1428 2844 1947 2747 
L 2328 2669 
Q 3034 2534 3370 2195 
Q 3706 1856 3706 1288 
Q 3706 609 3251 259 
Q 2797 -91 1919 -91 
Q 1588 -91 1214 -16 
Q 841 59 441 206 
L 441 856 
Q 825 641 1194 531 
Q 1563 422 1919 422 
Q 2459 422 2753 634 
Q 3047 847 3047 1241 
Q 3047 1584 2836 1778 
Q 2625 1972 2144 2069 
L 1759 2144 
Q 1053 2284 737 2584 
Q 422 2884 422 3419 
Q 422 4038 858 4394 
Q 1294 4750 2059 4750 
Q 2388 4750 2728 4690 
Q 3069 4631 3425 4513 
z
" transform="scale(0.015625)"/>
     <path id="DejaVuSans-20" transform="scale(0.015625)"/>
     <path id="DejaVuSans-70" d="M 1159 525 
L 1159 -1331 
L 581 -1331 
L 581 3500 
L 1159 3500 
L 1159 2969 
Q 1341 3281 1617 3432 
Q 1894 3584 2278 3584 
Q 2916 3584 3314 3078 
Q 3713 2572 3713 1747 
Q 3713 922 3314 415 
Q 2916 -91 2278 -91 
Q 1894 -91 1617 61 
Q 1341 213 1159 525 
z
M 3116 1747 
Q 3116 2381 2855 2742 
Q 2594 3103 2138 3103 
Q 1681 3103 1420 2742 
Q 1159 2381 1159 1747 
Q 1159 1113 1420 752 
Q 1681 391 2138 391 
Q 2594 391 2855 752 
Q 3116 1113 3116 1747 
z
" transform="scale(0.015625)"/>
     <path id="DejaVuSans-77" d="M 269 3500 
L 844 3500 
L 1563 769 
L 2278 3500 
L 2956 3500 
L 3675 769 
L 4391 3500 
L 4966 3500 
L 4050 0 
L 3372 0 
L 2619 2869 
L 1863 0 
L 1184 0 
L 269 3500 
z
" transform="scale(0.015625)"/>
     <path id="DejaVuSans-6b" d="M 581 4863 
L 1159 4863 
L 1159 1991 
L 2875 3500 
L 3609 3500 
L 1753 1863 
L 3688 0 
L 2938 0 
L 1159 1709 
L 1159 0 
L 581 0 
L 581 4863 
z
" transform="scale(0.015625)"/>
    </defs>
    <use xlink:href="#DejaVuSans-53"/>
    <use xlink:href="#DejaVuSans-68" transform="translate(63.476562 0)"/>
    <use xlink:href="#DejaVuSans-61" transform="translate(126.855469 0)"/>
    <use xlink:href="#DejaVuSans-72" transform="translate(188.134766 0)"/>
    <use xlink:href="#DejaVuSans-65" transform="translate(226.998047 0)"/>
    <use xlink:href="#DejaVuSans-64" transform="translate(288.521484 0)"/>
    <use xlink:href="#DejaVuSans-20" transform="translate(351.998047 0)"/>
    <use xlink:href="#DejaVuSans-6f" transform="translate(383.785156 0)"/>
    <use xlink:href="#DejaVuSans-75" transform="translate(444.966797 0)"/>
    <use xlink:href="#DejaVuSans-74" transform="translate(508.345703 0)"/>
    <use xlink:href="#DejaVuSans-70" transform="translate(547.554688 0)"/>
    <use xlink:href="#DejaVuSans-75" transform="translate(611.03125 0)"/>
    <use xlink:href="#DejaVuSans-74" transform="translate(674.410156 0)"/>
    <use xlink:href="#DejaVuSans-73" transform="translate(713.619141 0)"/>
    <use xlink:href="#DejaVuSans-20" transform="translate(765.71875 0)"/>
    <use xlink:href="#DejaVuSans-63" transform="translate(797.505859 0)"/>
    <use xlink:href="#DejaVuSans-6f" transform="translate(852.486328 0)"/>
    <use xlink:href="#DejaVuSans-6d" transform="translate(913.667969 0)"/>
    <use xlink:href="#DejaVuSans-70" transform="translate(1011.080078 0)"/>
    <use xlink:href="#DejaVuSans-61" transform="translate(1074.556641 0)"/>
    <use xlink:href="#DejaVuSans-72" transform="translate(1135.835938 0)"/>
    <use xlink:href="#DejaVuSans-65" transform="translate(1174.699219 0)"/>
    <use xlink:href="#DejaVuSans-64" transform="translate(1236.222656 0)"/>
    <use xlink:href="#DejaVuSans-20" transform="translate(1299.699219 0)"/>
    <use xlink:href="#DejaVuSans-61" transform="translate(1331.486328 0)"/>
    <use xlink:href="#DejaVuSans-63" transform="translate(1392.765625 0)"/>
    <use xlink:href="#DejaVuSans-72" transform="translate(1447.746094 0)"/>
    <use xlink:href="#DejaVuSans-6f" transform="translate(1486.609375 0)"/>
    <use xlink:href="#DejaVuSans-73" transform="translate(1547.791016 0)"/>
    <use xlink:href="#DejaVuSans-73" transform="translate(1599.890625 0)"/>
    <use xlink:href="#DejaVuSans-20" transform="translate(1651.990234 0)"/>
    <use xlink:href="#DejaVuSans-77" transform="translate(1683.777344 0)"/>
    <use xlink:href="#DejaVuSans-6f" transform="translate(1765.564453 0)"/>
    <use xlink:href="#DejaVuSans-72" transform="translate(1826.746094 0)"/>
    <use xlink:href="#DejaVuSans-6b" transform="translate(1867.859375 0)"/>
    <use xlink:href="#DejaVuSans-66" transform="translate(1925.769531 0)"/>
    <use xlink:href="#DejaVuSans-6c" transform="translate(1960.974609 0)"/>
    <use xlink:href="#DejaVuSans-6f" transform="translate(1988.757812 0)"/>
    <use xlink:href="#DejaVuSans-77" transform="translate(2049.939453 0)"/>
    <use xlink:href="#DejaVuSans-73" transform="translate(2131.726562 0)"/>
   </g>
  </g>
 </g>
 <defs>
  <clipPath id="p8d43cc00f8">
   <rect x="39.94" y="50.64" width="661.039817" height="179.994734"/>
  </clipPath>
  <clipPath id="p4f55d6a3eb">
   <rect x="39.94" y="262.503577" width="661.039817" height="179.994734"/>
  </clipPath>
  <clipPath id="pa760a50fa4">
   <rect x="39.94" y="474.367153" width="661.039817" height="179.994734"/>
  </clipPath>
  <clipPath id="p88ade01622">
   <rect x="39.94" y="686.23073" width="661.039817" height="179.994734"/>
  </clipPath>
 </defs>
</svg>
